<svg width="53" height="65" viewBox="0 0 53 65" fill="none" xmlns="http://www.w3.org/2000/svg">
<mask id="path-1-inside-1_55_26" fill="white">
<path d="M26.124 64.9805C40.5516 64.9803 52.2471 53.2841 52.2471 38.8564C52.2469 24.429 40.5515 12.7345 26.124 12.7344C27.8517 10.0932 29.8793 7.45355 32.2832 5.05078C37.6641 -0.327614 40.5962 -2.58456 46.8887 -6.91016L34.5508 -13.001C34.4678 -12.9474 22.2527 -5.05176 13.0615 7.29297C5.40995 17.5698 2.5713 26.1742 1.3457 30.5625C0.473753 33.1685 3.35604e-05 35.9571 0 38.8564C0 53.2842 11.6963 64.9805 26.124 64.9805Z"/>
</mask>
<path d="M26.124 64.9805L26.124 65.9805H26.124V64.9805ZM52.2471 38.8564L53.2471 38.8564V38.8564H52.2471ZM26.124 12.7344L26.124 13.7344L24.275 13.7344L25.2872 12.187L26.124 12.7344ZM32.2832 5.05078L31.5763 4.34351V4.34351L32.2832 5.05078ZM46.8887 -6.91016L47.3313 -7.80685L48.8603 -7.05203L47.4552 -6.08609L46.8887 -6.91016ZM34.5508 -13.001L34.0085 -13.8412L34.4849 -14.1487L34.9934 -13.8977L34.5508 -13.001ZM13.0615 7.29297L12.2594 6.69577H12.2594L13.0615 7.29297ZM1.3457 30.5625L2.30884 30.8315L2.30205 30.8558L2.29403 30.8798L1.3457 30.5625ZM0 38.8564H-1V38.8564L0 38.8564ZM26.124 64.9805L26.124 63.9805C39.9993 63.9803 51.2471 52.7318 51.2471 38.8564H52.2471H53.2471C53.2471 53.8363 41.1039 65.9803 26.124 65.9805L26.124 64.9805ZM52.2471 38.8564L51.2471 38.8565C51.2469 24.9813 39.9993 13.7345 26.124 13.7344L26.124 12.7344L26.124 11.7344C41.1037 11.7345 53.2469 23.8766 53.2471 38.8564L52.2471 38.8564ZM26.124 12.7344L25.2872 12.187C27.0432 9.50239 29.113 6.80564 31.5763 4.34351L32.2832 5.05078L32.9901 5.75805C30.6456 8.10147 28.6602 10.6841 26.9609 13.2818L26.124 12.7344ZM32.2832 5.05078L31.5763 4.34351C37.0113 -1.08902 39.9941 -3.38416 46.3222 -7.73422L46.8887 -6.91016L47.4552 -6.08609C41.1983 -1.78496 38.3169 0.433792 32.9901 5.75805L32.2832 5.05078ZM46.8887 -6.91016L46.446 -6.01347L34.1081 -12.1043L34.5508 -13.001L34.9934 -13.8977L47.3313 -7.80685L46.8887 -6.91016ZM34.5508 -13.001L35.0931 -12.1608C35.0377 -12.1251 22.9455 -4.3077 13.8636 7.89016L13.0615 7.29297L12.2594 6.69577C21.56 -5.79581 33.8978 -13.7697 34.0085 -13.8412L34.5508 -13.001ZM13.0615 7.29297L13.8636 7.89016C6.30629 18.0405 3.51229 26.5225 2.30884 30.8315L1.3457 30.5625L0.382562 30.2935C1.63031 25.8259 4.51362 17.0992 12.2594 6.69577L13.0615 7.29297ZM1.3457 30.5625L2.29403 30.8798C1.45575 33.3851 1.00003 36.0667 1 38.8565L0 38.8564L-1 38.8564C-0.999965 35.8475 -0.508249 32.9518 0.39738 30.2452L1.3457 30.5625ZM0 38.8564H1C1 52.7319 12.2486 63.9805 26.124 63.9805V64.9805V65.9805C11.144 65.9805 -1 53.8365 -1 38.8564H0Z" fill="#00E18E" mask="url(#path-1-inside-1_55_26)"/>
</svg>
