<svg width="56" height="73" viewBox="0 0 56 73" fill="none" xmlns="http://www.w3.org/2000/svg">
<path d="M55.9609 3.18213C54.344 5.32643 50.8657 7.12468 48.9349 10.6414C47.5748 13.1189 47.7606 16.5281 46.5261 17.5763L45.8857 17.1935C44.6464 13.193 48.5078 9.90531 49.774 6.44946L49.3993 6.04033C47.6822 6.44951 46.3891 7.05796 44.7636 7.72402C31.5867 13.1222 19.7736 20.8405 11.4633 32.2523C2.84617 44.0853 0.374677 58.14 1.61371 72.211C1.61578 72.2339 1.47167 72.5161 1.44784 72.5581L0.75848 72.196C-1.45876 61.7202 1.39405 46.8334 6.57133 37.3235C15.0394 21.7686 32.604 9.92516 49.6568 4.62706C47.3467 4.10568 38.0457 1.67125 36.5676 0.174297C38.2666 -0.650962 43.6736 1.70884 46.082 1.97701C49.3997 2.3465 52.7509 2.45129 55.9609 3.18213Z" fill="#007D4F"/>
</svg>
