<svg width="73" height="53" viewBox="0 0 73 53" fill="none" xmlns="http://www.w3.org/2000/svg">
<path d="M4.38281 0C6.49603 1.53513 8.14191 4.73391 11.6506 6.60214C14.1224 7.91813 17.6463 7.87624 18.6529 9.02661L18.2203 9.58929C14.0245 10.5582 10.8667 6.9597 7.38121 5.69222L6.93735 6.01464C7.25677 7.57619 7.80676 8.76311 8.3963 10.2516C13.1743 22.3175 20.4241 33.2405 31.688 41.1446C43.3677 49.3406 57.7024 52.0834 72.2746 51.4849C72.2984 51.4839 72.5806 51.6241 72.6224 51.6471L72.2083 52.2546C61.2822 53.8663 46.1129 50.7495 36.6221 45.7369C21.0986 37.5384 9.94067 21.2837 5.49646 5.73082C4.82176 7.7921 1.75982 16.0793 0.129418 17.3555C-0.619799 15.7949 2.13349 11.0121 2.55315 8.85284C3.13131 5.87843 3.43872 2.86417 4.38281 0Z" fill="#007D4F"/>
</svg>
