<svg width="200" height="50" viewBox="0 0 200 50" fill="none" xmlns="http://www.w3.org/2000/svg">
<path fill-rule="evenodd" clip-rule="evenodd" d="M29.6535 21.3253C36.908 18.8249 38.1428 12.3112 37.2167 6.32243C37.2167 6.10633 37.4019 5.95197 37.5872 6.01372C44.533 9.40944 52.343 16.8183 52.343 27.9316C52.343 36.4517 45.7369 43.9841 36.1363 43.9841C32.7105 44.1399 29.3304 43.1503 26.5294 41.1717C23.7285 39.193 21.6662 36.3381 20.6682 33.0571C19.6701 29.7762 19.7931 26.2564 21.0177 23.0532C22.2422 19.8499 24.4987 17.1457 27.4309 15.3674C27.6161 15.2439 27.8631 15.3674 27.8631 15.5835C27.9557 16.7257 28.2644 19.5966 29.53 21.3253H29.6535Z" fill="#ACACAC"/>
<path fill-rule="evenodd" clip-rule="evenodd" d="M72.7777 37.2214L73.3025 36.6039L74.9384 41.7901L74.7225 42.0064C73.4875 43.1486 71.6354 43.735 69.2585 43.735H69.1658C67.0047 43.735 65.3069 43.1175 64.1338 41.9756C62.9607 40.8025 62.3432 39.0427 62.3432 36.8201V22.6816H58.1758V16.9705H62.3432V10.0865H68.7645V16.9705H73.858V22.6816H68.7333V35.4309C68.7333 36.0176 68.888 37.9005 70.6782 37.9005C71.6046 37.9005 72.4687 37.5611 72.7777 37.1906V37.2214ZM76.1734 43.1486V17.0014H82.5942V43.1486H76.1734ZM79.3528 6.32031C80.1147 6.32035 80.8595 6.54592 81.4934 6.96855C82.1272 7.39123 82.622 7.99209 82.9149 8.69539C83.2079 9.39869 83.2858 10.1729 83.1395 10.9206C82.9932 11.6683 82.6288 12.3559 82.0922 12.8968C81.5557 13.4376 80.8709 13.8076 80.1246 13.9599C79.3779 14.1123 78.6031 14.0403 77.8974 13.7529C77.1918 13.4656 76.5872 12.9758 76.1593 12.3453C75.7318 11.7148 75.5 10.9718 75.4939 10.21C75.4939 8.1108 77.2537 6.32031 79.3528 6.32031ZM99.8508 16.3532C105.407 16.3532 108.464 19.3784 108.464 24.9042V43.1175H102.043V26.4477C101.919 23.4842 100.499 22.1259 97.4735 22.1259C94.7573 22.1259 92.5654 23.7929 91.4539 25.2129V43.1175H85.0331V17.0323H91.4539V19.8106C93.306 18.0201 96.2697 16.4149 99.8508 16.4149V16.3532ZM129.826 19.718V7.43166H136.247V43.1794H129.826V40.4628C128.843 41.4991 127.661 42.3259 126.351 42.8937C125.04 43.4614 123.629 43.7578 122.201 43.7658C115.193 43.7658 110.501 38.271 110.501 30.0904C110.501 21.8789 115.193 16.384 122.201 16.384C123.632 16.3905 125.046 16.6897 126.358 17.263C127.669 17.8364 128.849 18.6718 129.826 19.718ZM129.826 25.2438C129.11 24.3118 128.196 23.551 127.149 23.017C126.102 22.483 124.95 22.1891 123.775 22.1567C119.793 22.1567 117.138 25.3364 117.138 30.0904C117.138 34.8135 119.793 37.9932 123.775 37.9932C126.09 37.9932 128.622 36.7582 129.826 34.9679V25.2438ZM151.25 16.384C158.844 16.384 164.123 22.2493 164.123 30.5843V32.3439H144.705C145.354 36.0175 148.255 38.3637 152.206 38.3637C154.707 38.3637 157.455 37.2833 159.029 35.7086L159.461 35.3383L162.517 39.7218L162.208 39.9996C159.316 42.5646 155.545 43.9136 151.682 43.7658C143.656 43.7658 138.006 38.1167 138.006 30.0595C137.944 28.2807 138.241 26.5075 138.881 24.8466C139.521 23.1856 140.49 21.671 141.73 20.3938C142.97 19.1166 144.455 18.1031 146.096 17.414C147.737 16.7249 149.5 16.3746 151.28 16.384H151.25ZM144.674 27.4973H157.856C157.485 23.5768 154.244 21.7863 151.25 21.7863C146.742 21.7863 145.045 25.182 144.674 27.5282V27.4973ZM179.65 16.384H180.113V22.8668L179.558 22.7742C179.095 22.6816 178.508 22.6198 177.921 22.6198C175.853 22.6198 172.982 24.0707 171.902 25.6142V43.1175H165.481V17.0014H171.933V19.9032C174.063 17.6806 176.872 16.384 179.65 16.384Z" fill="#ACACAC"/>
</svg>
