<svg width="43" height="51" viewBox="0 0 43 51" fill="none" xmlns="http://www.w3.org/2000/svg">
<mask id="path-1-outside-1_287_7638" maskUnits="userSpaceOnUse" x="3.65569" y="-0.469439" width="29.5784" height="11.0881" fill="black">
<rect fill="white" x="3.65569" y="-0.469439" width="29.5784" height="11.0881"/>
<path d="M4.22987 9.50581L27.9208 7.77587C33.1444 7.19073 32.7568 0.722102 27.5077 0.903514L3.81893 2.63329"/>
</mask>
<path d="M4.22987 9.50581L27.9208 7.77587C33.1444 7.19073 32.7568 0.722102 27.5077 0.903514L3.81893 2.63329" fill="#00E18E"/>
<path d="M27.9208 7.77587L27.9768 8.54306L27.9917 8.54198L28.0064 8.54032L27.9208 7.77587ZM27.5077 0.903514L27.4811 0.134742L27.4664 0.135252L27.4516 0.136326L27.5077 0.903514ZM4.22987 9.50581L4.28589 10.273L27.9768 8.54306L27.9208 7.77587L27.8648 7.00869L4.17385 8.73862L4.22987 9.50581ZM27.9208 7.77587L28.0064 8.54032C30.9789 8.20734 32.5366 6.12726 32.4093 4.00615C32.3471 2.96941 31.8768 1.96254 31.02 1.23286C30.1598 0.500339 28.9555 0.0837864 27.4811 0.134742L27.5077 0.903514L27.5342 1.67229C28.6844 1.63254 29.4969 1.95653 30.0225 2.40414C30.5514 2.85459 30.8358 3.46744 30.8736 4.09832C30.9465 5.31246 30.0862 6.75926 27.8352 7.01143L27.9208 7.77587ZM27.5077 0.903514L27.4516 0.136326L3.76291 1.8661L3.81893 2.63329L3.87495 3.40048L27.5637 1.6707L27.5077 0.903514Z" fill="black" mask="url(#path-1-outside-1_287_7638)"/>
<path d="M3.91318 2.09138C8.59878 1.94023 9.08159 8.58975 4.42123 9.116L4.49286 9.88235L27.4844 8.20349L29.4409 34.9974C29.5863 36.9888 28.09 38.7209 26.0986 38.8663L5.80882 40.3479C4.36822 40.4531 3.11527 39.3707 3.01007 37.93L0.668225 5.85919C0.526851 3.92312 1.97889 2.23843 3.91318 2.09138Z" fill="white" stroke="black" stroke-width="0.769231"/>
<path d="M12.1736 21.0719C15.1848 20.8576 17.8018 23.1219 18.0217 26.1341C18.2417 29.1462 15.9814 31.7656 12.971 31.9911C5.69598 32.2282 4.9426 21.893 12.1736 21.0719Z" fill="#DDDDDD" stroke="black" stroke-width="0.769231"/>
<path d="M23.5445 25.3451L13.2126 26.0995L17.7499 17.1124L23.5445 25.3451Z" fill="#ACACAC" stroke="black" stroke-width="0.769231"/>
<path d="M15.3669 21.8307C16.7449 22.654 17.7406 24.0677 17.9816 25.7503L13.213 26.0985L15.3669 21.8307Z" fill="white" stroke="black" stroke-width="0.769231"/>
<path d="M35.2575 25.2375C36.1185 24.2409 37.625 24.1309 38.6216 24.9919L39.7743 25.9877C40.7709 26.8487 40.8809 28.3552 40.02 29.3518L25.0759 46.6492L25.0173 46.7181L24.9338 46.7536L19.2322 49.1282L18.5214 49.4239L18.7107 48.6777L20.2319 42.6916L20.2549 42.6038L20.3145 42.5358L35.2575 25.2375Z" fill="#DDDDDD" stroke="black" stroke-width="0.769231"/>
<path d="M32.3352 29.2023L35.5414 25.4911C36.2635 24.6553 37.5264 24.563 38.3623 25.2851L39.5151 26.2811C40.351 27.0032 40.4432 28.2661 39.7211 29.102L36.515 32.8131L32.3352 29.2023ZM24.7853 46.3984L19.0837 48.773L20.6049 42.787L24.7853 46.3984Z" fill="white"/>
<path d="M34.1411 27.112L35.5417 25.4907C36.2638 24.6548 37.5268 24.5626 38.3626 25.2847L39.5154 26.2806C40.3513 27.0027 40.4435 28.2657 39.7214 29.1015L38.3208 30.7228L34.1411 27.112Z" fill="#DDDDDD"/>
</svg>
