<svg width="50" height="50" viewBox="0 0 50 50" fill="none" xmlns="http://www.w3.org/2000/svg">
<path d="M19.2184 12.4555C19.7715 13.0052 20.017 13.7946 19.8746 14.5633L19.7372 15.3016C19.574 16.1805 19.974 17.068 20.7382 17.5225L24.767 19.9192C25.1598 20.1525 25.6156 19.8464 25.6156 19.4379C25.6156 19.3731 25.6042 19.3054 25.5791 19.2369C25.1035 17.942 25.0358 16.5325 25.3852 15.1979L25.411 15.1C25.6986 14.0029 26.792 13.3265 27.894 13.5634L28.0149 13.5894C29.3774 13.8833 30.5703 12.8099 30.5703 11.5191C30.5703 11.2972 30.5345 11.0681 30.4587 10.8391C30.0489 9.60028 30.0448 8.26309 30.4472 7.02188L31.1886 4.73979C29.9342 4.26149 28.5738 4 27.1534 4C22.7261 4 18.8884 6.54 17 10.252L19.2184 12.4555Z" fill="#DDDDDD"/>
<path d="M31.8873 27.1233C31.6855 26.5828 31.2282 26.1764 30.6667 26.038L30.127 25.9053C29.4848 25.7472 29.0086 25.2068 28.9354 24.553L28.5489 21.1062C28.5115 20.7702 28.8569 20.5563 29.1322 20.6809C29.1759 20.7007 29.2181 20.7291 29.2566 20.7669C29.9843 21.4825 30.9138 21.9582 31.92 22.1298L31.9939 22.1423C32.8212 22.2831 33.6107 21.7524 33.7871 20.9373L33.8065 20.8479C34.0241 19.8398 35.1115 19.3632 35.9816 19.757C36.1312 19.8247 36.2747 19.9187 36.406 20.0397C37.116 20.6938 38.0161 21.1045 38.9755 21.2119L40.4995 21.5002C40.2379 22.1424 39.9331 22.5426 39.4997 23.5001C38 26.5001 35.9995 28.0002 32.6958 29.2909L31.8873 27.1233Z" fill="#ACACAC"/>
<path d="M43.3382 32.3366C34.9481 40.7268 21.3448 40.7268 12.9547 32.3366C4.56458 23.9465 4.56458 10.3433 12.9547 1.95312" stroke="black" stroke-width="1.5" stroke-miterlimit="10" stroke-linecap="round" stroke-linejoin="round"/>
<path d="M28.1465 30.8169C35.6973 30.8169 41.8184 24.6958 41.8184 17.145C41.8184 9.59425 35.6973 3.47314 28.1465 3.47314C20.5957 3.47314 14.4746 9.59425 14.4746 17.145C14.4746 24.6958 20.5957 30.8169 28.1465 30.8169Z" stroke="black" stroke-width="1.5" stroke-miterlimit="10" stroke-linecap="round" stroke-linejoin="round"/>
<path d="M18.3809 48.0469H34.0059M26.1934 44.9219V48.0469" stroke="black" stroke-width="1.5" stroke-miterlimit="10" stroke-linecap="round" stroke-linejoin="round"/>
<path d="M22.2871 13.6719C24.4444 13.6719 26.1934 15.4208 26.1934 17.5781C26.1934 19.7354 27.9423 21.4844 30.0996 21.4844C32.2569 21.4844 34.0059 19.7354 34.0059 17.5781" stroke="black" stroke-width="1.5" stroke-miterlimit="10" stroke-linecap="round" stroke-linejoin="round"/>
</svg>
