<svg width="53" height="53" viewBox="0 0 53 53" fill="none" xmlns="http://www.w3.org/2000/svg">
<g clip-path="url(#clip0_264_5930)">
<rect x="34.9658" y="12.46" width="2.61328" height="14.2344" transform="rotate(-3.10077 34.9658 12.46)" fill="white" stroke="black"/>
<path d="M28.5036 41.736L49.8083 40.5819C50.2701 40.5571 50.6643 40.9115 50.6893 41.3733L50.8694 44.6985C50.8945 45.1603 50.5408 45.5552 50.0791 45.5804L28.7744 46.7345C28.3124 46.7596 27.9174 46.4051 27.8924 45.9432L27.7123 42.618L27.7115 42.532C27.7316 42.1078 28.0706 41.7595 28.5036 41.736Z" fill="white" stroke="black"/>
<path d="M28.2204 36.7282L49.5251 35.5741C49.9869 35.5493 50.3811 35.9037 50.4061 36.3655L50.5862 39.6907C50.6113 40.1525 50.2576 40.5474 49.7959 40.5726L28.4912 41.7267C28.0292 41.7517 27.6342 41.3973 27.6092 40.9354L27.4291 37.6102L27.4283 37.5242C27.4484 37.1 27.7874 36.7516 28.2204 36.7282Z" fill="#DDDDDD" stroke="black"/>
<path d="M27.9489 31.735L49.2536 30.5809C49.7154 30.5561 50.1096 30.9105 50.1346 31.3723L50.3148 34.6975C50.3398 35.1593 49.9862 35.5542 49.5244 35.5794L28.2197 36.7336C27.7577 36.7586 27.3627 36.4042 27.3377 35.9422L27.1576 32.617L27.1568 32.531C27.1769 32.1068 27.5159 31.7585 27.9489 31.735Z" fill="white" stroke="black"/>
<path d="M27.6911 26.7399L48.9958 25.5858C49.4576 25.561 49.8518 25.9154 49.8768 26.3772L50.0569 29.7024C50.082 30.1642 49.7283 30.5591 49.2666 30.5843L27.9619 31.7384C27.4999 31.7635 27.1049 31.409 27.0799 30.9471L26.8998 27.6219L26.899 27.5359C26.9191 27.1117 27.2581 26.7634 27.6911 26.7399Z" fill="#DDDDDD" stroke="black"/>
<path d="M16.346 22.8184C23.9331 22.4074 30.4169 28.2248 30.8279 35.8119C31.2389 43.399 25.4215 49.8827 17.8344 50.2937C10.2473 50.7047 3.76354 44.8873 3.35254 37.3002C2.94153 29.7131 8.75891 23.2294 16.346 22.8184Z" fill="white" stroke="black"/>
<path d="M16.5688 26.9143C21.894 26.6258 26.4448 30.7089 26.7333 36.0341C27.0217 41.3592 22.9387 45.91 17.6135 46.1985C12.2883 46.487 7.73751 42.4039 7.44903 37.0787C7.16056 31.7535 11.2436 27.2027 16.5688 26.9143Z" fill="#DDDDDD" stroke="black"/>
<path d="M25.152 3.26427C25.9882 2.41232 27.2769 2.09009 28.7521 2.33946C30.2255 2.58856 31.8348 3.4052 33.2083 4.75305C34.5819 6.10091 35.4288 7.69454 35.7056 9.16291C35.9828 10.6331 35.6849 11.9277 34.8489 12.7799C34.0127 13.6321 32.7235 13.9548 31.2481 13.7054C29.7748 13.4563 28.1654 12.6397 26.7919 11.2918C25.4183 9.94395 24.5715 8.35031 24.2946 6.88195C24.0174 5.41151 24.3157 4.11645 25.152 3.26427Z" fill="#ACACAC"/>
<path d="M25.152 3.26427C25.9882 2.41232 27.2769 2.09009 28.7521 2.33946C30.2255 2.58856 31.8348 3.4052 33.2083 4.75305C34.5819 6.10091 35.4288 7.69454 35.7056 9.16291C35.9828 10.6331 35.6849 11.9277 34.8489 12.7799C34.0127 13.6321 32.7235 13.9548 31.2481 13.7054C29.7748 13.4563 28.1654 12.6397 26.7919 11.2918C25.4183 9.94395 24.5715 8.35031 24.2946 6.88195C24.0174 5.41151 24.3157 4.11645 25.152 3.26427Z" fill="#007D4F"/>
<path d="M25.152 3.26427C25.9882 2.41232 27.2769 2.09009 28.7521 2.33946C30.2255 2.58856 31.8348 3.4052 33.2083 4.75305C34.5819 6.10091 35.4288 7.69454 35.7056 9.16291C35.9828 10.6331 35.6849 11.9277 34.8489 12.7799C34.0127 13.6321 32.7235 13.9548 31.2481 13.7054C29.7748 13.4563 28.1654 12.6397 26.7919 11.2918C25.4183 9.94395 24.5715 8.35031 24.2946 6.88195C24.0174 5.41151 24.3157 4.11645 25.152 3.26427Z" fill="#00E18E"/>
<path d="M25.152 3.26427C25.9882 2.41232 27.2769 2.09009 28.7521 2.33946C30.2255 2.58856 31.8348 3.4052 33.2083 4.75305C34.5819 6.10091 35.4288 7.69454 35.7056 9.16291C35.9828 10.6331 35.6849 11.9277 34.8489 12.7799C34.0127 13.6321 32.7235 13.9548 31.2481 13.7054C29.7748 13.4563 28.1654 12.6397 26.7919 11.2918C25.4183 9.94395 24.5715 8.35031 24.2946 6.88195C24.0174 5.41151 24.3157 4.11645 25.152 3.26427Z" stroke="black"/>
<path d="M38.0088 4.48272C39.2289 2.99459 40.7408 2.00914 42.1787 1.6026C43.6186 1.19549 44.9351 1.37733 45.8583 2.13434C46.7814 2.89137 47.2171 4.14628 47.1001 5.63783C46.9832 7.12749 46.3132 8.80316 45.093 10.2913C43.8729 11.7794 42.361 12.7649 40.9231 13.1714C39.4834 13.5784 38.1675 13.3971 37.2442 12.6403C36.321 11.8833 35.8846 10.6279 36.0017 9.13619C36.1186 7.64653 36.7886 5.97085 38.0088 4.48272Z" fill="#ACACAC"/>
<path d="M38.0088 4.48272C39.2289 2.99459 40.7408 2.00914 42.1787 1.6026C43.6186 1.19549 44.9351 1.37733 45.8583 2.13434C46.7814 2.89137 47.2171 4.14628 47.1001 5.63783C46.9832 7.12749 46.3132 8.80316 45.093 10.2913C43.8729 11.7794 42.361 12.7649 40.9231 13.1714C39.4834 13.5784 38.1675 13.3971 37.2442 12.6403C36.321 11.8833 35.8846 10.6279 36.0017 9.13619C36.1186 7.64653 36.7886 5.97085 38.0088 4.48272Z" fill="#007D4F"/>
<path d="M38.0088 4.48272C39.2289 2.99459 40.7408 2.00914 42.1787 1.6026C43.6186 1.19549 44.9351 1.37733 45.8583 2.13434C46.7814 2.89137 47.2171 4.14628 47.1001 5.63783C46.9832 7.12749 46.3132 8.80316 45.093 10.2913C43.8729 11.7794 42.361 12.7649 40.9231 13.1714C39.4834 13.5784 38.1675 13.3971 37.2442 12.6403C36.321 11.8833 35.8846 10.6279 36.0017 9.13619C36.1186 7.64653 36.7886 5.97085 38.0088 4.48272Z" fill="#00E18E"/>
<path d="M38.0088 4.48272C39.2289 2.99459 40.7408 2.00914 42.1787 1.6026C43.6186 1.19549 44.9351 1.37733 45.8583 2.13434C46.7814 2.89137 47.2171 4.14628 47.1001 5.63783C46.9832 7.12749 46.3132 8.80316 45.093 10.2913C43.8729 11.7794 42.361 12.7649 40.9231 13.1714C39.4834 13.5784 38.1675 13.3971 37.2442 12.6403C36.321 11.8833 35.8846 10.6279 36.0017 9.13619C36.1186 7.64653 36.7886 5.97085 38.0088 4.48272Z" stroke="black"/>
<path d="M16.8797 32.6565C17.8038 32.6064 18.5904 33.2075 18.6331 33.9965C18.6623 34.535 19.1225 34.948 19.6611 34.9188C20.1996 34.8896 20.6125 34.4293 20.5834 33.8909C20.4994 32.3415 19.3048 31.0941 17.756 30.7786L17.7478 30.6278C17.7187 30.0893 17.2584 29.6763 16.7199 29.7054C16.1813 29.7346 15.7684 30.1949 15.7976 30.7334L15.8057 30.8843C14.3002 31.3651 13.2472 32.7343 13.3311 34.2837C13.4321 36.148 15.1409 37.5766 17.1404 37.4683C18.0644 37.4182 18.851 38.0193 18.8938 38.8083C18.9365 39.5972 18.2195 40.2797 17.2954 40.3298C16.3713 40.3799 15.5848 39.7788 15.542 38.9899C15.5129 38.4514 15.0527 38.0384 14.5141 38.0676C13.9755 38.0967 13.5626 38.5571 13.5918 39.0955C13.6757 40.6448 14.8703 41.8922 16.4191 42.2077L16.4205 42.2318C16.4496 42.7702 16.9098 43.1833 17.4484 43.1541C17.987 43.1249 18.3999 42.6646 18.3707 42.1261L18.3694 42.102C19.875 41.6211 20.928 40.2519 20.844 38.7027C20.743 36.8383 19.0343 35.4097 17.0348 35.518C16.1107 35.5681 15.3241 34.967 15.2814 34.1781C15.2386 33.3891 15.9557 32.7065 16.8797 32.6565Z" fill="#ACACAC"/>
</g>
<defs>
<clipPath id="clip0_264_5930">
<rect width="50" height="50" fill="white" transform="translate(0 2.70461) rotate(-3.10077)"/>
</clipPath>
</defs>
</svg>
