<svg width="53" height="53" viewBox="0 0 53 53" fill="none" xmlns="http://www.w3.org/2000/svg">
<g clip-path="url(#clip0_264_5908)">
<mask id="mask0_264_5908" style="mask-type:luminance" maskUnits="userSpaceOnUse" x="0" y="-1" width="53" height="54">
<path d="M49.9232 -0.000203117L0.000123717 2.76998L2.7703 52.693L52.6934 49.9229L49.9232 -0.000203117Z" fill="white"/>
</mask>
<g mask="url(#mask0_264_5908)">
<path d="M37.6669 13.6819C37.2995 7.06159 31.6349 1.99257 25.0146 2.35992C18.3945 2.72726 13.3254 8.39189 13.6928 15.0122C14.0602 21.6324 19.7248 26.7014 26.3449 26.3341C32.9652 25.9667 38.0342 20.3021 37.6669 13.6819Z" fill="#FFDB8C"/>
<path d="M26.3169 25.8349C19.9726 26.1867 14.5443 21.3286 14.1922 14.9841C13.8404 8.63981 18.6979 3.2117 25.042 2.85949C31.3865 2.50744 36.8154 7.36484 37.1676 13.7092C37.5197 20.0538 32.6615 25.4828 26.3169 25.8349Z" fill="white" stroke="black"/>
<path d="M28.7868 42.9283C29.927 42.4292 30.9732 41.7353 31.8771 40.876C32.8985 39.905 33.7188 38.7419 34.2908 37.4538L37.5772 30.0534C38.1186 28.8342 39.544 28.2822 40.7656 28.8182C41.9953 29.3576 42.5517 30.7938 42.0065 32.0209L38.333 40.2899C37.5394 42.0763 36.4012 43.6887 34.9844 45.0355C33.6919 46.2638 32.1903 47.2493 30.5519 47.9457L28.7868 42.9283Z" fill="#DDDDDD" stroke="black"/>
<path d="M32.4758 42.2598C33.6671 41.8999 34.7882 41.3348 35.7878 40.5894C36.9175 39.7469 37.8702 38.6898 38.5914 37.4791L42.7358 30.522C43.3758 29.4479 44.7169 29.048 45.8289 29.5601L46.0485 29.675C47.2052 30.357 47.5866 31.8496 46.8992 33.0031L42.2671 40.7766C40.334 44.0201 37.2443 46.4017 33.6304 47.4509L32.4758 42.2598Z" fill="#DDDDDD" stroke="black"/>
<mask id="path-6-inside-1_264_5908" fill="white">
<path d="M2.13138 41.5586C2.06966 40.4463 2.92863 39.4979 4.04159 39.4496L6.60481 39.3384L9.94544 36.4752C11.716 34.9577 13.9802 34.1397 16.3119 34.1753C18.6435 34.211 20.8817 35.0977 22.6051 36.6686L24.4477 38.3483L32.5785 37.8972C34.1861 37.808 35.5611 39.039 35.6503 40.6466C35.7395 42.2542 34.5087 43.6296 32.9011 43.7188L20.096 44.4296L33.3907 43.6919C34.7324 43.6174 36.0463 43.2794 37.2573 42.6971C38.4683 42.1148 39.5528 41.2996 40.4487 40.2982L45.8478 34.2629C46.9208 33.0635 48.7615 32.9569 49.9657 34.0246C51.1779 35.099 51.2852 36.9544 50.205 38.1615L44.1711 44.9044C42.8237 46.4101 41.1929 47.6356 39.3719 48.5111C37.5509 49.3865 35.5753 49.8947 33.5579 50.0066L4.68566 51.5569C3.58408 51.616 2.64262 50.772 2.5815 49.6706L2.13138 41.5586Z"/>
</mask>
<path d="M2.13138 41.5586C2.06966 40.4463 2.92863 39.4979 4.04159 39.4496L6.60481 39.3384L9.94544 36.4752C11.716 34.9577 13.9802 34.1397 16.3119 34.1753C18.6435 34.211 20.8817 35.0977 22.6051 36.6686L24.4477 38.3483L32.5785 37.8972C34.1861 37.808 35.5611 39.039 35.6503 40.6466C35.7395 42.2542 34.5087 43.6296 32.9011 43.7188L20.096 44.4296L33.3907 43.6919C34.7324 43.6174 36.0463 43.2794 37.2573 42.6971C38.4683 42.1148 39.5528 41.2996 40.4487 40.2982L45.8478 34.2629C46.9208 33.0635 48.7615 32.9569 49.9657 34.0246C51.1779 35.099 51.2852 36.9544 50.205 38.1615L44.1711 44.9044C42.8237 46.4101 41.1929 47.6356 39.3719 48.5111C37.5509 49.3865 35.5753 49.8947 33.5579 50.0066L4.68566 51.5569C3.58408 51.616 2.64262 50.772 2.5815 49.6706L2.13138 41.5586Z" fill="#DDDDDD"/>
<path d="M6.60481 39.3384L6.64817 40.3374L6.99329 40.3225L7.25558 40.0977L6.60481 39.3384ZM9.94544 36.4752L9.29467 35.7159V35.7159L9.94544 36.4752ZM22.6051 36.6686L23.2787 35.9296L23.2787 35.9296L22.6051 36.6686ZM24.4477 38.3483L23.774 39.0873L24.0842 39.37L24.5031 39.3468L24.4477 38.3483ZM32.5785 37.8972L32.6339 38.8957L32.634 38.8957L32.5785 37.8972ZM32.9011 43.7188L32.8457 42.7204L32.8457 42.7204L32.9011 43.7188ZM20.096 44.4296L20.0406 43.4311C19.4892 43.4617 19.067 43.9336 19.0976 44.485C19.1282 45.0364 19.6 45.4586 20.1514 45.428L20.096 44.4296ZM33.3907 43.6919L33.3353 42.6934L33.3353 42.6934L33.3907 43.6919ZM40.4487 40.2982L41.194 40.9649L41.194 40.9649L40.4487 40.2982ZM45.8478 34.2629L46.5931 34.9297L46.5931 34.9296L45.8478 34.2629ZM49.9657 34.0246L49.3024 34.7728L49.3024 34.7729L49.9657 34.0246ZM50.205 38.1615L50.9502 38.8283L50.9502 38.8283L50.205 38.1615ZM44.1711 44.9044L43.4259 44.2375L43.4259 44.2375L44.1711 44.9044ZM33.5579 50.0066L33.6115 51.0052L33.6133 51.0051L33.5579 50.0066ZM4.04159 39.4496L4.08494 40.4487L6.64817 40.3374L6.60481 39.3384L6.56145 38.3393L3.99823 38.4506L4.04159 39.4496ZM6.60481 39.3384L7.25558 40.0977L10.5962 37.2345L9.94544 36.4752L9.29467 35.7159L5.95404 38.5791L6.60481 39.3384ZM9.94544 36.4752L10.5962 37.2345C12.1815 35.8757 14.2089 35.1433 16.2966 35.1752L16.3119 34.1753L16.3271 33.1755C13.7516 33.1361 11.2505 34.0396 9.29467 35.7159L9.94544 36.4752ZM16.3119 34.1753L16.2966 35.1752C18.3843 35.2071 20.3883 36.0011 21.9314 37.4077L22.6051 36.6686L23.2787 35.9296C21.375 34.1943 18.9027 33.2148 16.3271 33.1755L16.3119 34.1753ZM22.6051 36.6686L21.9314 37.4077L23.774 39.0873L24.4477 38.3483L25.1214 37.6093L23.2787 35.9296L22.6051 36.6686ZM24.4477 38.3483L24.5031 39.3468L32.6339 38.8957L32.5785 37.8972L32.5232 36.8988L24.3923 37.3498L24.4477 38.3483ZM32.5785 37.8972L32.634 38.8957C33.6898 38.8371 34.5932 39.6456 34.6519 40.702L35.6503 40.6466L36.6488 40.5912C36.529 38.4324 34.6824 36.7789 32.5231 36.8988L32.5785 37.8972ZM35.6503 40.6466L34.6519 40.702C34.7105 41.7581 33.9018 42.6618 32.8457 42.7204L32.9011 43.7188L32.9565 44.7173C35.1155 44.5975 36.7686 42.7502 36.6488 40.5912L35.6503 40.6466ZM32.9011 43.7188L32.8457 42.7204L20.0406 43.4311L20.096 44.4296L20.1515 45.428L32.9565 44.7173L32.9011 43.7188ZM20.096 44.4296L20.1514 45.428L33.4461 44.6903L33.3907 43.6919L33.3353 42.6934L20.0406 43.4311L20.096 44.4296ZM33.3907 43.6919L33.4461 44.6903C34.9189 44.6086 36.3612 44.2376 37.6906 43.5983L37.2573 42.6971L36.824 41.7959C35.7313 42.3213 34.5458 42.6262 33.3353 42.6934L33.3907 43.6919ZM37.2573 42.6971L37.6906 43.5983C39.02 42.9591 40.2105 42.0643 41.194 40.9649L40.4487 40.2982L39.7035 39.6314C38.8951 40.535 37.9166 41.2705 36.824 41.7959L37.2573 42.6971ZM40.4487 40.2982L41.194 40.9649L46.5931 34.9297L45.8478 34.2629L45.1025 33.5962L39.7034 39.6314L40.4487 40.2982ZM45.8478 34.2629L46.5931 34.9296C47.299 34.1405 48.51 34.0704 49.3024 34.7728L49.9657 34.0246L50.6291 33.2763C49.0129 31.8434 46.5426 31.9864 45.1025 33.5962L45.8478 34.2629ZM49.9657 34.0246L49.3024 34.7729C50.0999 35.4797 50.1705 36.7004 49.4598 37.4946L50.205 38.1615L50.9502 38.8283C52.3998 37.2083 52.256 34.7183 50.629 33.2762L49.9657 34.0246ZM50.205 38.1615L49.4598 37.4946L43.4259 44.2375L44.1711 44.9044L44.9163 45.5712L50.9502 38.8283L50.205 38.1615ZM44.1711 44.9044L43.4259 44.2375C42.1661 45.6454 40.6413 46.7913 38.9387 47.6098L39.3719 48.5111L39.8052 49.4123C41.7446 48.48 43.4813 47.1748 44.9163 45.5712L44.1711 44.9044ZM39.3719 48.5111L38.9387 47.6098C37.236 48.4284 35.3888 48.9035 33.5025 49.0082L33.5579 50.0066L33.6133 51.0051C35.7618 50.8859 37.8658 50.3447 39.8052 49.4123L39.3719 48.5111ZM33.5579 50.0066L33.5043 49.0081L4.63205 50.5583L4.68567 51.5569L4.73928 52.5554L33.6115 51.0052L33.5579 50.0066ZM2.5815 49.6706L3.57997 49.6152L3.12984 41.5032L2.13138 41.5586L1.13291 41.614L1.58304 49.726L2.5815 49.6706ZM4.68567 51.5569L4.63205 50.5583C4.08125 50.5879 3.61053 50.1659 3.57997 49.6152L2.5815 49.6706L1.58304 49.726C1.67472 51.3782 3.08691 52.6442 4.73928 52.5554L4.68567 51.5569ZM4.04159 39.4496L3.99823 38.4506C2.3288 38.523 1.04033 39.9455 1.13291 41.614L2.13138 41.5586L3.12984 41.5032C3.09898 40.947 3.52847 40.4728 4.08494 40.4487L4.04159 39.4496Z" fill="black" mask="url(#path-6-inside-1_264_5908)"/>
</g>
<path d="M24.7287 20.1452C25.4299 20.1063 26.0874 19.7905 26.5559 19.2672L31.9969 13.1869L32.0911 13.0702C32.4975 12.5111 32.4546 11.739 31.9889 11.2283L31.8823 11.1227L30.1132 9.53958C29.5118 9.00185 28.5883 9.05313 28.05 9.65406L24.3744 13.7615L22.738 12.2962C22.1364 11.7578 21.2121 11.8093 20.6738 12.4107L19.0907 14.1799C18.5529 14.7813 18.6041 15.7048 19.2052 16.2431L22.8165 19.4747C23.3399 19.9428 24.0276 20.184 24.7287 20.1452Z" fill="#ACACAC"/>
<path d="M24.7287 20.1452C25.4299 20.1063 26.0874 19.7905 26.5559 19.2672L31.9969 13.1869L32.0911 13.0702C32.4975 12.5111 32.4546 11.739 31.9889 11.2283L31.8823 11.1227L30.1132 9.53958C29.5118 9.00185 28.5883 9.05313 28.05 9.65406L24.3744 13.7615L22.738 12.2962C22.1364 11.7578 21.2121 11.8093 20.6738 12.4107L19.0907 14.1799C18.5529 14.7813 18.6041 15.7048 19.2052 16.2431L22.8165 19.4747C23.3399 19.9428 24.0276 20.184 24.7287 20.1452Z" fill="#00E18E"/>
<path d="M24.7287 20.1452C25.4299 20.1063 26.0874 19.7905 26.5559 19.2672L31.9969 13.1869L32.0911 13.0702C32.4975 12.5111 32.4546 11.739 31.9889 11.2283L31.8823 11.1227L30.1132 9.53958C29.5118 9.00185 28.5883 9.05313 28.05 9.65406L24.3744 13.7615L22.738 12.2962C22.1364 11.7578 21.2121 11.8093 20.6738 12.4107L19.0907 14.1799C18.5529 14.7813 18.6041 15.7048 19.2052 16.2431L22.8165 19.4747C23.3399 19.9428 24.0276 20.184 24.7287 20.1452Z" stroke="black"/>
</g>
<defs>
<clipPath id="clip0_264_5908">
<rect width="50" height="50" fill="white" transform="matrix(-0.998464 0.0554038 0.0554038 0.998464 49.9238 0)"/>
</clipPath>
</defs>
</svg>
