<svg width="50" height="50" viewBox="0 0 50 50" fill="none" xmlns="http://www.w3.org/2000/svg">
<g clip-path="url(#clip0_264_5967)">
<path d="M49.0234 6.83594C49.0234 4.67861 47.2745 2.92969 45.1172 2.92969H4.88281C2.72549 2.92969 0.976562 4.67861 0.976562 6.83594V30.6641H49.0234V6.83594Z" fill="white"/>
<path d="M4.88281 38.4766H45.1172C47.2745 38.4766 49.0234 36.7276 49.0234 34.5703V30.6641H0.976562V34.5703C0.976562 36.7276 2.72549 38.4766 4.88281 38.4766Z" fill="#ACACAC"/>
<path d="M34.0406 47.0703L30.7807 38.4766H19.2424L15.9824 47.0703H34.0406Z" fill="#DDDDDD"/>
<path d="M30.7246 9.66602C31.8033 9.66602 32.6777 10.5404 32.6777 11.6191C32.6777 12.6979 31.8033 13.5723 30.7246 13.5723C29.6459 13.5723 28.7715 12.6979 28.7715 11.6191C28.7715 10.5404 29.646 9.66602 30.7246 9.66602ZM30.7246 26.4547C31.8033 26.4547 32.6777 25.5803 32.6777 24.5016C32.6777 23.4229 31.8033 22.5484 30.7246 22.5484C29.6459 22.5484 28.7715 23.4229 28.7715 24.5016C28.7715 25.5802 29.646 26.4547 30.7246 26.4547ZM37.743 20.0135C36.6643 20.0135 35.7898 19.1391 35.7898 18.0604C35.7898 16.9816 36.6643 16.1072 37.743 16.1072C38.8217 16.1072 39.6961 16.9816 39.6961 18.0604C39.6961 19.139 38.8216 20.0135 37.743 20.0135Z" fill="#FFDB85"/>
<path d="M12.3146 10.23L5.24805 14.1452V21.9758L12.3146 25.891L19.3812 21.9758V14.1452L12.3146 10.23Z" fill="#9BBECF"/>
<path d="M5.24805 21.9755L12.311 25.8888V18.0603L5.24805 14.147V21.9755Z" fill="#DEE9EF"/>
<path d="M5.24609 14.1451L12.3127 18.0604L19.3793 14.1451L12.3127 10.2299L5.24609 14.1451Z" fill="white"/>
<path d="M11.5301 47.0703H38.4699M45.1172 38.4766H4.88281C2.72549 38.4766 0.976562 36.7276 0.976562 34.5703V6.83594C0.976562 4.67861 2.72549 2.92969 4.88281 2.92969H45.1172C47.2745 2.92969 49.0234 4.67861 49.0234 6.83594V34.5703C49.0234 36.7276 47.2745 38.4766 45.1172 38.4766ZM34.0413 47.0703L30.7813 38.4766H19.2431L15.9831 47.0703H34.0413Z" stroke="black" stroke-miterlimit="10" stroke-linecap="round" stroke-linejoin="round"/>
<path d="M44.7256 11.6191H23.7422" stroke="black" stroke-miterlimit="10" stroke-linecap="round" stroke-linejoin="round"/>
<path d="M30.7246 9.66602C31.8033 9.66602 32.6777 10.5404 32.6777 11.6191C32.6777 12.6979 31.8033 13.5723 30.7246 13.5723C29.6459 13.5723 28.7715 12.6979 28.7715 11.6191C28.7715 10.5404 29.646 9.66602 30.7246 9.66602Z" fill="#00E18E" stroke="black" stroke-miterlimit="10" stroke-linecap="round" stroke-linejoin="round"/>
<path d="M44.7256 24.5015H23.7422" stroke="black" stroke-miterlimit="10" stroke-linecap="round" stroke-linejoin="round"/>
<path d="M30.7246 26.4546C31.8033 26.4546 32.6777 25.5802 32.6777 24.5015C32.6777 23.4228 31.8033 22.5483 30.7246 22.5483C29.6459 22.5483 28.7715 23.4228 28.7715 24.5015C28.7715 25.5801 29.646 26.4546 30.7246 26.4546Z" fill="#00E18E" stroke="black" stroke-miterlimit="10" stroke-linecap="round" stroke-linejoin="round"/>
<path d="M23.7422 18.0605H44.7256" stroke="black" stroke-miterlimit="10" stroke-linecap="round" stroke-linejoin="round"/>
<path d="M37.7426 20.0137C36.6639 20.0137 35.7895 19.1393 35.7895 18.0605C35.7895 16.9818 36.6639 16.1074 37.7426 16.1074C38.8213 16.1074 39.6957 16.9818 39.6957 18.0605C39.6957 19.1392 38.8212 20.0137 37.7426 20.0137ZM13.7685 11.0355C12.864 10.5344 11.7651 10.5344 10.8606 11.0355L6.79413 13.2886C5.84005 13.8172 5.24805 14.822 5.24805 15.9127V20.2083C5.24805 21.299 5.84005 22.3038 6.79413 22.8324L10.8606 25.0855C11.7651 25.5866 12.864 25.5866 13.7685 25.0855L17.8351 22.8324C18.7891 22.3038 19.3812 21.299 19.3812 20.2082V15.9128C19.3812 14.822 18.7891 13.8172 17.8351 13.2886L13.7685 11.0355Z" fill="#00E18E" stroke="black" stroke-miterlimit="10" stroke-linecap="round" stroke-linejoin="round"/>
</g>
<defs>
<clipPath id="clip0_264_5967">
<rect width="50" height="50" fill="white"/>
</clipPath>
</defs>
</svg>
