<svg width="50" height="50" viewBox="0 0 50 50" fill="none" xmlns="http://www.w3.org/2000/svg">
<g clip-path="url(#clip0_264_6057)">
<rect x="2" y="20" width="6" height="27" rx="3" fill="#DDDDDD"/>
<rect x="42" y="21" width="6" height="26" rx="3" fill="#DDDDDD"/>
<rect x="20" y="30" width="6" height="18" rx="3" fill="#ACACAC"/>
<mask id="mask0_264_6057" style="mask-type:luminance" maskUnits="userSpaceOnUse" x="0" y="0" width="50" height="50">
<path d="M0 0.000144958H49.9999V50H0V0.000144958Z" fill="white"/>
</mask>
<g mask="url(#mask0_264_6057)">
<path d="M12.5 24.2188C12.5 21.3064 10.1389 18.9454 7.22655 18.9454C4.31415 18.9454 1.95312 21.3064 1.95312 24.2188V42.7735C1.95312 45.6858 4.31415 48.0469 7.22655 48.0469C10.1389 48.0469 12.5 45.6858 12.5 42.7735V24.2188Z" stroke="black" stroke-width="1.5" stroke-miterlimit="10" stroke-linecap="round" stroke-linejoin="round"/>
<path d="M30.2734 34.7657C30.2734 31.8533 27.9124 29.4922 25 29.4922C22.0876 29.4922 19.7266 31.8533 19.7266 34.7657V42.7735C19.7266 45.6858 22.0876 48.0469 25 48.0469C27.9124 48.0469 30.2734 45.6858 30.2734 42.7735V34.7657Z" stroke="black" stroke-width="1.5" stroke-miterlimit="10" stroke-linecap="round" stroke-linejoin="round"/>
<path d="M48.0468 25.6837C48.0468 22.7713 45.6858 20.4102 42.7734 20.4102C39.861 20.4102 37.5 22.7713 37.5 25.6837V42.7735C37.5 45.6858 39.861 48.0469 42.7734 48.0469C45.6858 48.0469 48.0468 45.6858 48.0468 42.7735V34.4727V25.6837Z" stroke="black" stroke-width="1.5" stroke-miterlimit="10" stroke-linecap="round" stroke-linejoin="round"/>
<path d="M1.95312 12.793L5.07401 9.70598C6.84315 8.11487 9.50174 8.03069 11.368 9.50667L23.8242 20.822C25.8447 22.4199 28.7591 22.1733 30.4824 20.2585L41.3085 8.88675" stroke="black" stroke-width="1.5" stroke-miterlimit="10" stroke-linecap="round" stroke-linejoin="round"/>
<path d="M48.0468 11.1331V5.85963C48.0468 3.70232 46.298 1.9534 44.1406 1.9534H38.8672" stroke="black" stroke-width="1.5" stroke-miterlimit="10" stroke-linecap="round" stroke-linejoin="round"/>
</g>
</g>
<defs>
<clipPath id="clip0_264_6057">
<rect width="50" height="50" fill="white"/>
</clipPath>
</defs>
</svg>
