<svg width="445" height="288" viewBox="0 0 445 288" fill="none" xmlns="http://www.w3.org/2000/svg">
<path opacity="0.13" d="M445 0C445 76.2497 414.71 149.376 360.793 203.293C306.876 257.21 233.75 287.5 157.5 287.5C81.2503 287.5 8.12354 257.21 -45.7932 203.293C-99.7099 149.377 -130 76.2498 -130 3.05176e-05H-60.4434C-60.4434 57.8022 -37.4816 113.237 3.39076 154.109C44.2631 194.982 99.6978 217.943 157.5 217.943C215.302 217.943 270.737 194.982 311.609 154.109C352.482 113.237 375.443 57.8022 375.443 0H445Z" fill="url(#paint0_linear_189_1872)"/>
<defs>
<linearGradient id="paint0_linear_189_1872" x1="43.65" y1="268.525" x2="404.75" y2="2.51445e-05" gradientUnits="userSpaceOnUse">
<stop stop-color="#00E18E"/>
<stop offset="1" stop-color="#00E18E" stop-opacity="0"/>
</linearGradient>
</defs>
</svg>
