<svg width="206" height="60" viewBox="0 0 206 60" fill="none" xmlns="http://www.w3.org/2000/svg">
<g clip-path="url(#clip0_41_1829)">
<path d="M66.9062 7.63738V3.78596H85.0502V7.63738H78.2867V25.8804H73.6698V7.63738H66.9062ZM93.2178 26.2036C91.5135 26.2036 90.0464 25.8585 88.8167 25.168C87.5941 24.4704 86.6521 23.485 85.9905 22.212C85.3288 20.9319 84.998 19.4179 84.998 17.6701C84.998 15.9657 85.3288 14.4696 85.9905 13.1822C86.6521 11.8948 87.5833 10.8915 88.7843 10.1723C89.9925 9.45309 91.4092 9.09348 93.0345 9.09348C94.1276 9.09348 95.1451 9.26969 96.0872 9.62211C97.0364 9.96734 97.8635 10.4888 98.5682 11.1864C99.2802 11.8841 99.834 12.7615 100.229 13.8187C100.625 14.8688 100.823 16.0987 100.823 17.5083V18.7705H86.8319V15.9225H96.4971C96.4971 15.2608 96.3533 14.6746 96.0657 14.164C95.7781 13.6533 95.379 13.2542 94.8683 12.9665C94.3649 12.6716 93.7788 12.5241 93.11 12.5241C92.4124 12.5241 91.794 12.686 91.2545 13.0096C90.7224 13.3261 90.3053 13.754 90.0033 14.2934C89.7013 14.8256 89.5466 15.4191 89.5394 16.0735V18.7813C89.5394 19.6012 89.6905 20.3097 89.9925 20.9067C90.3017 21.5035 90.7368 21.9639 91.2977 22.2876C91.8587 22.6111 92.5238 22.773 93.2934 22.773C93.804 22.773 94.2715 22.7011 94.6956 22.5573C95.1199 22.4134 95.4832 22.1976 95.7853 21.91C96.0872 21.6223 96.3174 21.2698 96.4757 20.8527L100.726 21.1332C100.51 22.1545 100.068 23.0463 99.3989 23.8087C98.7373 24.5638 97.8815 25.1536 96.8316 25.578C95.7889 25.9951 94.5842 26.2036 93.2178 26.2036ZM111.308 26.2036C109.611 26.2036 108.151 25.8441 106.928 25.1248C105.713 24.3984 104.778 23.3916 104.124 22.1041C103.477 20.8167 103.153 19.3351 103.153 17.6593C103.153 15.9621 103.48 14.4732 104.134 13.193C104.796 11.9056 105.735 10.9023 106.95 10.1831C108.165 9.45669 109.611 9.09348 111.286 9.09348C112.732 9.09348 113.997 9.356 115.084 9.88103C116.169 10.4061 117.029 11.1432 117.662 12.0926C118.294 13.042 118.643 14.1568 118.708 15.4369H114.372C114.249 14.6099 113.926 13.9446 113.401 13.4412C112.883 12.9305 112.203 12.6752 111.362 12.6752C110.65 12.6752 110.028 12.8694 109.496 13.2578C108.971 13.6389 108.561 14.1963 108.266 14.9299C107.971 15.6636 107.824 16.5517 107.824 17.5947C107.824 18.6519 107.968 19.551 108.255 20.2917C108.55 21.0325 108.964 21.5971 109.496 21.9855C110.028 22.3738 110.65 22.5681 111.362 22.5681C111.887 22.5681 112.358 22.4602 112.775 22.2444C113.199 22.0287 113.548 21.7158 113.821 21.3058C114.102 20.8887 114.285 20.3889 114.372 19.8063H118.708C118.636 21.0721 118.291 22.1869 117.672 23.1507C117.061 24.1072 116.216 24.8551 115.137 25.3945C114.059 25.9339 112.782 26.2036 111.308 26.2036ZM126.246 16.3V25.8801H121.65V3.78566H126.116V12.2329H126.31C126.684 11.2547 127.288 10.4888 128.122 9.93497C128.957 9.37398 130.003 9.09348 131.262 9.09348C132.412 9.09348 133.415 9.34521 134.271 9.84866C135.134 10.3449 135.803 11.0605 136.278 11.9955C136.759 12.9233 136.997 14.0345 136.99 15.3291V25.8801H132.394V16.149C132.401 15.1278 132.143 14.333 131.618 13.7648C131.1 13.1966 130.373 12.9125 129.438 12.9125C128.813 12.9125 128.259 13.0456 127.777 13.3117C127.303 13.5778 126.929 13.9662 126.655 14.4768C126.389 14.9803 126.253 15.588 126.246 16.3ZM149.42 9.30924V12.7615H139.441V9.30924H149.42ZM141.706 5.33916H146.302V20.788C146.302 21.2124 146.366 21.5431 146.496 21.7804C146.625 22.0107 146.805 22.1725 147.035 22.266C147.272 22.3594 147.546 22.4062 147.855 22.4062C148.071 22.4062 148.286 22.3882 148.502 22.3522C148.718 22.3092 148.883 22.2768 148.998 22.2552L149.721 25.675C149.492 25.747 149.168 25.8297 148.751 25.9231C148.334 26.0239 147.827 26.085 147.229 26.1066C146.122 26.1498 145.151 26.0023 144.317 25.6642C143.49 25.3263 142.846 24.8013 142.386 24.0892C141.926 23.3772 141.699 22.4781 141.706 21.3921V5.33916ZM152.412 25.8801V9.30924H157.007V25.8801H152.412ZM154.722 7.17317C154.038 7.17317 153.451 6.94662 152.962 6.49352C152.481 6.03321 152.239 5.48301 152.239 4.8429C152.239 4.20999 152.481 3.66699 152.962 3.21389C153.451 2.75358 154.038 2.52344 154.722 2.52344C155.404 2.52344 155.986 2.75358 156.469 3.21389C156.958 3.66699 157.202 4.20999 157.202 4.8429C157.202 5.48301 156.958 6.03321 156.469 6.49352C155.986 6.94662 155.404 7.17317 154.722 7.17317ZM168.175 26.2036C166.477 26.2036 165.018 25.8441 163.796 25.1248C162.581 24.3984 161.645 23.3916 160.991 22.1041C160.345 20.8167 160.021 19.3351 160.021 17.6593C160.021 15.9621 160.348 14.4732 161.001 13.193C161.663 11.9056 162.602 10.9023 163.817 10.1831C165.033 9.45669 166.477 9.09348 168.154 9.09348C169.599 9.09348 170.864 9.356 171.95 9.88103C173.036 10.4061 173.896 11.1432 174.529 12.0926C175.162 13.042 175.511 14.1568 175.576 15.4369H171.239C171.116 14.6099 170.792 13.9446 170.268 13.4412C169.75 12.9305 169.071 12.6752 168.229 12.6752C167.517 12.6752 166.896 12.8694 166.363 13.2578C165.838 13.6389 165.428 14.1963 165.134 14.9299C164.838 15.6636 164.691 16.5517 164.691 17.5947C164.691 18.6519 164.835 19.551 165.123 20.2917C165.417 21.0325 165.831 21.5971 166.363 21.9855C166.896 22.3738 167.517 22.5681 168.229 22.5681C168.754 22.5681 169.225 22.4602 169.642 22.2444C170.067 22.0287 170.416 21.7158 170.689 21.3058C170.969 20.8887 171.152 20.3889 171.239 19.8063H175.576C175.504 21.0721 175.159 22.1869 174.539 23.1507C173.929 24.1072 173.083 24.8551 172.004 25.3945C170.926 25.9339 169.65 26.2036 168.175 26.2036ZM183.243 26.1928C182.185 26.1928 181.243 26.0095 180.416 25.6426C179.589 25.2687 178.935 24.7185 178.452 23.992C177.978 23.2585 177.741 22.345 177.741 21.2518C177.741 20.3313 177.909 19.5582 178.248 18.9324C178.586 18.3067 179.046 17.8032 179.628 17.422C180.212 17.0409 180.873 16.7532 181.614 16.5589C182.361 16.3648 183.145 16.2282 183.966 16.149C184.929 16.0483 185.705 15.9549 186.295 15.8685C186.884 15.775 187.313 15.6384 187.579 15.4585C187.844 15.2788 187.978 15.0127 187.978 14.6602V14.5955C187.978 13.9122 187.762 13.3836 187.331 13.0096C186.907 12.6356 186.302 12.4486 185.518 12.4486C184.692 12.4486 184.033 12.632 183.544 12.9988C183.055 13.3584 182.731 13.8116 182.574 14.3582L178.323 14.0129C178.539 13.006 178.964 12.1358 179.597 11.4022C180.23 10.6614 181.045 10.0932 182.044 9.69762C183.052 9.29486 184.216 9.09348 185.541 9.09348C186.46 9.09348 187.342 9.20136 188.183 9.41714C189.032 9.6329 189.784 9.96734 190.438 10.4204C191.099 10.8735 191.621 11.4561 192.002 12.1681C192.383 12.873 192.573 13.7181 192.573 14.7034V25.8801H188.215V23.5821H188.086C187.82 24.1 187.463 24.5566 187.018 24.9522C186.572 25.3407 186.035 25.6462 185.41 25.8693C184.785 26.085 184.062 26.1928 183.243 26.1928ZM184.558 23.0211C185.235 23.0211 185.831 22.888 186.349 22.6219C186.866 22.3486 187.273 21.9819 187.568 21.5215C187.862 21.0613 188.011 20.5398 188.011 19.9573V18.1987C187.867 18.2923 187.669 18.3786 187.417 18.4578C187.172 18.5296 186.895 18.598 186.586 18.6627C186.277 18.7203 185.968 18.7741 185.659 18.8245C185.35 18.8677 185.07 18.9072 184.818 18.9432C184.278 19.0222 183.807 19.1482 183.405 19.3207C183.001 19.4934 182.689 19.7271 182.466 20.022C182.242 20.3097 182.131 20.6694 182.131 21.1008C182.131 21.7266 182.358 22.2048 182.811 22.5357C183.271 22.8594 183.853 23.0211 184.558 23.0211ZM200.734 3.78566V25.8801H196.138V3.78566H200.734Z" fill="#010409"/>
<path d="M77.9963 42.145C77.9207 41.3834 77.5967 40.7918 77.0241 40.3702C76.4514 39.9485 75.6743 39.7378 74.6927 39.7378C74.0257 39.7378 73.4625 39.8321 73.0031 40.021C72.5437 40.2035 72.1914 40.4584 71.946 40.7855C71.7069 41.1128 71.5872 41.4841 71.5872 41.8994C71.5746 42.2456 71.6471 42.5477 71.8044 42.8057C71.9681 43.0637 72.1914 43.2871 72.4746 43.4759C72.7577 43.6585 73.085 43.8188 73.4562 43.9573C73.8274 44.0894 74.2238 44.2028 74.6454 44.2972L76.3823 44.7125C77.2253 44.9014 77.9994 45.1531 78.7042 45.4676C79.409 45.7823 80.0193 46.1693 80.5352 46.6288C81.0513 47.0882 81.4509 47.6294 81.734 48.2524C82.0235 48.8755 82.1714 49.5898 82.1777 50.3953C82.1714 51.5783 81.8693 52.6042 81.2715 53.4725C80.6799 54.3347 79.8243 55.0049 78.7042 55.4833C77.5904 55.9552 76.247 56.1913 74.6738 56.1913C73.1132 56.1913 71.754 55.952 70.5963 55.4738C69.4447 54.9955 68.5448 54.2875 67.8967 53.3498C67.2549 52.4059 66.9182 51.2386 66.8867 49.8478H70.8417C70.8856 50.4959 71.0713 51.0371 71.3986 51.4714C71.732 51.8993 72.1756 52.2233 72.7294 52.4437C73.2894 52.6576 73.9218 52.7647 74.6265 52.7647C75.3187 52.7647 75.9197 52.6639 76.4294 52.4626C76.9455 52.2611 77.345 51.9811 77.6282 51.6224C77.9114 51.2636 78.0528 50.8514 78.0528 50.3858C78.0528 49.9516 77.9238 49.5866 77.6658 49.2908C77.4142 48.995 77.043 48.7433 76.552 48.5356C76.0676 48.328 75.4729 48.1391 74.7681 47.9692L72.6634 47.4406C71.0335 47.0441 69.7468 46.4243 68.8029 45.581C67.8589 44.7377 67.3902 43.6018 67.3965 42.1732C67.3902 41.0027 67.7017 39.98 68.3309 39.1054C68.9664 38.2306 69.838 37.5478 70.9455 37.0568C72.053 36.566 73.3115 36.3206 74.721 36.3206C76.1556 36.3206 77.4079 36.566 78.4776 37.0568C79.5537 37.5478 80.3906 38.2306 80.9883 39.1054C81.5861 39.98 81.8945 40.9933 81.9133 42.145H77.9963ZM91.4016 56.2007C89.9355 56.2007 88.6675 55.8892 87.5978 55.2661C86.5345 54.6368 85.7133 53.762 85.1343 52.6418C84.5554 51.5155 84.2659 50.2096 84.2659 48.7244C84.2659 47.2267 84.5554 45.9176 85.1343 44.7974C85.7133 43.6709 86.5345 42.7963 87.5978 42.1732C88.6675 41.5439 89.9355 41.2292 91.4016 41.2292C92.8679 41.2292 94.1327 41.5439 95.1961 42.1732C96.2658 42.7963 97.0901 43.6709 97.669 44.7974C98.248 45.9176 98.5374 47.2267 98.5374 48.7244C98.5374 50.2096 98.248 51.5155 97.669 52.6418C97.0901 53.762 96.2658 54.6368 95.1961 55.2661C94.1327 55.8892 92.8679 56.2007 91.4016 56.2007ZM91.4205 53.0855C92.0875 53.0855 92.6444 52.8968 93.0912 52.5191C93.538 52.1353 93.8746 51.613 94.1012 50.9522C94.334 50.2913 94.4504 49.5394 94.4504 48.6961C94.4504 47.8528 94.334 47.1008 94.1012 46.4399C93.8746 45.7792 93.538 45.2569 93.0912 44.873C92.6444 44.4892 92.0875 44.2972 91.4205 44.2972C90.7472 44.2972 90.1809 44.4892 89.7216 44.873C89.2685 45.2569 88.9255 45.7792 88.6927 46.4399C88.4663 47.1008 88.353 47.8528 88.353 48.6961C88.353 49.5394 88.4663 50.2913 88.6927 50.9522C88.9255 51.613 89.2685 52.1353 89.7216 52.5191C90.1809 52.8968 90.7472 53.0855 91.4205 53.0855ZM105.173 36.5849V55.9175H101.152V36.5849H105.173ZM117.691 49.7438V41.4181H121.712V55.9175H117.851V53.2838H117.7C117.373 54.1334 116.829 54.8162 116.068 55.3322C115.313 55.8482 114.391 56.1062 113.302 56.1062C112.333 56.1062 111.48 55.886 110.744 55.4455C110.008 55.0049 109.432 54.3788 109.017 53.567C108.608 52.7552 108.4 51.7829 108.394 50.6501V41.4181H112.415V49.9327C112.421 50.7886 112.651 51.4651 113.104 51.9622C113.557 52.4594 114.164 52.708 114.925 52.708C115.41 52.708 115.863 52.5979 116.285 52.3775C116.706 52.151 117.046 51.8174 117.304 51.377C117.568 50.9365 117.697 50.3921 117.691 49.7438ZM132.64 41.4181V44.4388H123.909V41.4181H132.64ZM125.891 37.9442H129.912V51.4619C129.912 51.8332 129.969 52.1227 130.082 52.3304C130.195 52.5317 130.352 52.6733 130.554 52.7552C130.761 52.837 131 52.8779 131.271 52.8779C131.46 52.8779 131.649 52.8622 131.837 52.8307C132.026 52.7929 132.171 52.7647 132.272 52.7458L132.904 55.7381C132.703 55.801 132.42 55.8734 132.054 55.9552C131.69 56.0434 131.246 56.0968 130.724 56.1157C129.755 56.1535 128.905 56.0245 128.175 55.7287C127.452 55.4329 126.888 54.9734 126.486 54.3505C126.083 53.7275 125.885 52.9408 125.891 51.9905V37.9442ZM135.259 55.9175V41.4181H139.28V55.9175H135.259ZM137.279 39.5489C136.681 39.5489 136.168 39.3508 135.74 38.9543C135.319 38.5516 135.108 38.0701 135.108 37.51C135.108 36.9562 135.319 36.4811 135.74 36.0847C136.168 35.6818 136.681 35.4805 137.279 35.4805C137.877 35.4805 138.386 35.6818 138.808 36.0847C139.236 36.4811 139.45 36.9562 139.45 37.51C139.45 38.0701 139.236 38.5516 138.808 38.9543C138.386 39.3508 137.877 39.5489 137.279 39.5489ZM149.051 56.2007C147.585 56.2007 146.317 55.8892 145.248 55.2661C144.184 54.6368 143.363 53.762 142.784 52.6418C142.205 51.5155 141.916 50.2096 141.916 48.7244C141.916 47.2267 142.205 45.9176 142.784 44.7974C143.363 43.6709 144.184 42.7963 145.248 42.1732C146.317 41.5439 147.585 41.2292 149.051 41.2292C150.518 41.2292 151.782 41.5439 152.845 42.1732C153.916 42.7963 154.74 43.6709 155.319 44.7974C155.898 45.9176 156.187 47.2267 156.187 48.7244C156.187 50.2096 155.898 51.5155 155.319 52.6418C154.74 53.762 153.916 54.6368 152.845 55.2661C151.782 55.8892 150.518 56.2007 149.051 56.2007ZM149.07 53.0855C149.737 53.0855 150.294 52.8968 150.741 52.5191C151.188 52.1353 151.524 51.613 151.75 50.9522C151.984 50.2913 152.1 49.5394 152.1 48.6961C152.1 47.8528 151.984 47.1008 151.75 46.4399C151.524 45.7792 151.188 45.2569 150.741 44.873C150.294 44.4892 149.737 44.2972 149.07 44.2972C148.397 44.2972 147.831 44.4892 147.371 44.873C146.918 45.2569 146.575 45.7792 146.342 46.4399C146.116 47.1008 146.003 47.8528 146.003 48.6961C146.003 49.5394 146.116 50.2913 146.342 50.9522C146.575 51.613 146.918 52.1353 147.371 52.5191C147.831 52.8968 148.397 53.0855 149.07 53.0855ZM162.822 47.5349V55.9175H158.801V41.4181H162.633V43.9762H162.804C163.125 43.1329 163.662 42.4658 164.418 41.975C165.173 41.4778 166.089 41.2292 167.164 41.2292C168.171 41.2292 169.05 41.4496 169.798 41.89C170.547 42.3305 171.129 42.9599 171.544 43.778C171.959 44.5898 172.166 45.559 172.166 46.6855V55.9175H168.145V47.4028C168.153 46.5155 167.926 45.8233 167.466 45.326C167.007 44.8226 166.374 44.5709 165.569 44.5709C165.029 44.5709 164.55 44.6873 164.135 44.9201C163.725 45.1531 163.404 45.4928 163.172 45.9397C162.945 46.3802 162.828 46.912 162.822 47.5349Z" fill="#010409"/>
<path d="M33.3187 5.60092L11.2246 27.6502H0L27.7063 0L33.3187 5.60092Z" fill="#010409"/>
<path d="M34.77 32.3496L17.3849 49.6994L0 32.3496H34.77Z" fill="#010409"/>
<path d="M55.4123 32.3496L27.706 59.9999L22.0938 54.3989L44.1877 32.3496H55.4123Z" fill="#010409"/>
<path d="M20.6445 27.6496L38.0296 10.2998L55.4145 27.6496H20.6445Z" fill="#00E18E"/>
</g>
<defs>
<clipPath id="clip0_41_1829">
<rect width="205.479" height="60" fill="white"/>
</clipPath>
</defs>
</svg>
