<svg width="81" height="46" viewBox="0 0 81 46" fill="none" xmlns="http://www.w3.org/2000/svg">
<path opacity="0.2" d="M38.201 20.5151C25.1212 32.9712 9.15012 25.5296 2.79956 20.2518L0.771867 43.4239L76.4912 50.0472L79.3801 17.0336C70.7763 6.3642 54.5508 4.94492 38.201 20.5151Z" fill="url(#paint0_linear_264_4288)"/>
<path d="M2.79956 20.2518C9.15012 25.5296 25.1212 32.9712 38.201 20.5151C54.5508 4.94492 70.7763 6.3642 79.3801 17.0336" stroke="#007D4F" stroke-width="1.22594" stroke-linecap="round"/>
<circle cx="2.45188" cy="2.45188" r="3.06486" transform="matrix(0.996196 0.0871388 -0.0871727 0.996193 42.8994 12.0361)" fill="#00E18E" stroke="white" stroke-width="1.22594"/>
<path d="M7.42654 15.6159C6.89523 15.5695 6.41686 15.4687 5.99142 15.3137C5.5766 15.1597 5.21472 14.9513 4.90577 14.6888C4.60744 14.4271 4.36736 14.1116 4.18552 13.7424C4.00368 13.3731 3.89025 12.9563 3.84523 12.492L5.50868 12.2038C5.5533 12.5504 5.64555 12.8422 5.78542 13.0793C5.92528 13.3164 6.09058 13.5075 6.28132 13.6527C6.47299 13.7872 6.67807 13.8908 6.89657 13.9635C7.12569 14.0371 7.35714 14.0841 7.59092 14.1045C8.10097 14.1491 8.54016 14.0858 8.90849 13.9146C9.27682 13.7434 9.58305 13.4864 9.82718 13.1437C10.0819 12.802 10.2776 12.4015 10.4142 11.9423C10.5516 11.4725 10.6436 10.9719 10.6901 10.4406C10.7143 10.1644 10.7216 9.89732 10.712 9.6395C10.714 9.37199 10.7049 9.10886 10.6847 8.85012C10.6752 8.59231 10.6594 8.34465 10.6373 8.10716L10.446 8.09043C10.4346 8.71046 10.3302 9.23134 10.1326 9.65307C9.93512 10.0748 9.6702 10.4103 9.33787 10.6596C9.01616 10.9099 8.65846 11.082 8.26476 11.1761C7.87106 11.2701 7.47763 11.3 7.08447 11.2656C6.52128 11.2163 6.00645 11.0428 5.53997 10.745C5.08411 10.4482 4.72833 10.0476 4.47265 9.54344C4.21789 9.02862 4.12027 8.43117 4.17977 7.75111C4.21883 7.30481 4.32556 6.8805 4.49996 6.47816C4.68499 6.07676 4.94068 5.72437 5.26704 5.42098C5.60402 5.11853 6.01997 4.89258 6.51488 4.74314C7.00979 4.5937 7.59197 4.54826 8.26141 4.60681C9.23901 4.69233 10.0488 4.98266 10.6907 5.47782C11.3433 5.9739 11.8135 6.65747 12.1013 7.52853C12.3892 8.3996 12.4796 9.44612 12.3727 10.6681C12.275 11.7839 12.0262 12.7311 11.6261 13.5099C11.227 14.278 10.6741 14.8453 9.96744 15.2118C9.27236 15.5686 8.42539 15.7033 7.42654 15.6159ZM7.72343 10.0205C8.12723 10.0558 8.49642 9.99713 8.83101 9.84437C9.1656 9.69161 9.43763 9.45843 9.64709 9.14482C9.85749 8.82059 9.98222 8.43533 10.0213 7.98903C10.0622 7.52149 9.99817 7.15183 9.82921 6.88008C9.66026 6.60832 9.4312 6.41161 9.14204 6.28995C8.86443 6.1586 8.57155 6.07944 8.26339 6.05249C7.89148 6.01995 7.56227 6.05005 7.27576 6.14277C6.99019 6.22486 6.74871 6.35364 6.55133 6.52911C6.36457 6.70551 6.218 6.91219 6.1116 7.14915C6.00614 7.37549 5.94178 7.62149 5.91854 7.88714C5.88227 8.30155 5.94144 8.66543 6.09605 8.97876C6.26129 9.29302 6.48616 9.53754 6.77067 9.71233C7.05519 9.88712 7.37277 9.98986 7.72343 10.0205ZM17.9567 16.537C17.1066 16.4627 16.3668 16.2909 15.7372 16.0217C15.1182 15.7534 14.6467 15.3909 14.3226 14.9343C14.01 14.4679 13.8817 13.916 13.9375 13.2784C13.9812 12.779 14.1251 12.3579 14.3692 12.0152C14.624 11.6735 14.9471 11.4073 15.3385 11.2166C15.7406 11.027 16.1729 10.9202 16.6354 10.8964L16.6451 10.7849L18.47 10.6714L20.2647 11.0854L20.255 11.197C20.6966 11.2892 21.0941 11.4578 21.4474 11.7028C21.8113 11.9488 22.0886 12.2675 22.2792 12.6589C22.4698 13.0504 22.5423 13.5064 22.4968 14.0271C22.441 14.6647 22.2134 15.1855 21.814 15.5895C21.4261 15.9839 20.8988 16.259 20.232 16.4148C19.5759 16.5716 18.8174 16.6123 17.9567 16.537ZM18.1051 15.0242C18.3708 15.0474 18.6489 15.0504 18.9396 15.033C19.2311 15.0049 19.5095 14.9436 19.7748 14.849C20.04 14.7545 20.2612 14.6132 20.4382 14.4252C20.6269 14.2276 20.7346 13.9747 20.7616 13.6665C20.7951 13.284 20.7012 12.9492 20.4801 12.6622C20.2589 12.3751 19.9627 12.1511 19.5913 11.9902C19.2208 11.8186 18.8178 11.7137 18.3821 11.6756C17.9571 11.6384 17.5472 11.6722 17.1526 11.7769C16.7589 11.8709 16.434 12.0352 16.1779 12.2698C15.9218 12.5044 15.7766 12.8182 15.7422 13.2114C15.7161 13.5089 15.7682 13.7705 15.8984 13.996C16.0401 14.2118 16.2329 14.3947 16.4768 14.5445C16.7216 14.6837 16.9851 14.7924 17.2673 14.8706C17.5602 14.9498 17.8395 15.001 18.1051 15.0242ZM18.5035 10.2889C18.8541 10.3196 19.1939 10.2904 19.523 10.2014C19.8635 10.1027 20.1455 9.94 20.3687 9.71326C20.6036 9.47682 20.7373 9.17265 20.7698 8.80073C20.7958 8.5032 20.7486 8.24745 20.6282 8.03347C20.5183 7.82042 20.3569 7.6457 20.144 7.50929C19.9426 7.36319 19.7168 7.25242 19.4664 7.17698C19.2266 7.10247 18.9846 7.05453 18.7402 7.03315C18.4214 7.00527 18.0984 7.0252 17.7713 7.09295C17.4441 7.1607 17.1587 7.3017 16.9151 7.51595C16.6831 7.72051 16.5503 8.01406 16.5168 8.3966C16.4843 8.76851 16.5574 9.09612 16.736 9.37943C16.9156 9.65212 17.1645 9.86663 17.4827 10.023C17.8019 10.1687 18.1422 10.2573 18.5035 10.2889ZM18.4044 11.4206L16.6326 10.9283L16.6521 10.7052C16.2451 10.5839 15.8911 10.4084 15.59 10.1786C15.2889 9.94883 15.0624 9.66134 14.9106 9.31613C14.7597 8.96029 14.7042 8.55391 14.7442 8.09699C14.8009 7.4488 15.0126 6.9266 15.3792 6.53037C15.7564 6.13507 16.2466 5.85672 16.8496 5.69532C17.4642 5.52422 18.154 5.47214 18.9191 5.53906C19.7267 5.6097 20.4071 5.787 20.9605 6.07097C21.5254 6.34523 21.9429 6.71368 22.2129 7.1763C22.4945 7.62923 22.6083 8.16385 22.5544 8.78016C22.4977 9.42835 22.2759 9.94432 21.8889 10.3281C21.5029 10.7012 20.9634 10.9324 20.2703 11.0217L20.2522 11.2289L18.4044 11.4206ZM26.9134 12.1167C26.3715 12.0693 25.8871 11.9145 25.4603 11.6523C25.0336 11.3901 24.7069 11.0243 24.4803 10.5547C24.2643 10.0861 24.1851 9.52242 24.2428 8.86361C24.2902 8.32168 24.4104 7.86641 24.6032 7.49782C24.8076 7.11952 25.0582 6.82557 25.355 6.61597C25.6633 6.39666 25.9974 6.24922 26.3573 6.17363C26.7289 6.08835 27.1006 6.06197 27.4725 6.0945C28.0357 6.14376 28.5253 6.29902 28.9415 6.56028C29.3682 6.82247 29.6896 7.18786 29.9056 7.65646C30.1322 8.12599 30.2162 8.69548 30.1576 9.36492C30.0944 10.0875 29.8945 10.6589 29.5579 11.0792C29.2319 11.5004 28.8317 11.7919 28.3571 11.9539C27.894 12.1061 27.4128 12.1604 26.9134 12.1167ZM27.0957 10.7674C27.3295 10.7879 27.5626 10.7547 27.795 10.668C28.0275 10.5813 28.223 10.427 28.3816 10.2054C28.5508 9.9846 28.6526 9.67763 28.687 9.28447C28.7242 8.85943 28.6738 8.51774 28.5358 8.25939C28.3978 8.00105 28.2166 7.80853 27.9921 7.68182C27.7782 7.55604 27.5491 7.48246 27.3047 7.46108C27.0603 7.4397 26.8219 7.47239 26.5894 7.55913C26.3676 7.6468 26.1774 7.80148 26.0188 8.02317C25.8602 8.24486 25.7642 8.54697 25.7307 8.92951C25.6954 9.3333 25.7409 9.66922 25.8674 9.93725C25.9948 10.1947 26.1702 10.392 26.3938 10.5294C26.6173 10.6667 26.8513 10.7461 27.0957 10.7674ZM34.697 18.2422C34.1445 18.1939 33.6548 18.0387 33.228 17.7765C32.8013 17.5143 32.4799 17.1489 32.2639 16.6803C32.0489 16.2011 31.9702 15.632 32.0278 14.9732C32.0753 14.4313 32.1954 13.976 32.3883 13.6074C32.5918 13.2398 32.8419 12.9511 33.1386 12.7415C33.4469 12.5222 33.7815 12.3695 34.1424 12.2833C34.5139 12.198 34.8856 12.1716 35.2575 12.2041C35.8101 12.2525 36.2944 12.4072 36.7106 12.6685C37.1373 12.9307 37.4587 13.2961 37.6747 13.7647C37.9013 14.2342 37.9848 14.809 37.9253 15.4891C37.8621 16.2117 37.6675 16.7835 37.3415 17.2047C37.0165 17.6153 36.6167 17.9016 36.1421 18.0635C35.6782 18.2263 35.1965 18.2859 34.697 18.2422ZM34.8807 16.8771C35.1145 16.8975 35.3423 16.8639 35.5641 16.7762C35.7966 16.6895 35.9916 16.5406 36.1493 16.3295C36.3185 16.1088 36.4203 15.8018 36.4547 15.4086C36.4919 14.9836 36.4415 14.6419 36.3035 14.3836C36.1761 14.1261 36.0002 13.9341 35.7757 13.8074C35.5522 13.67 35.3182 13.5907 35.0738 13.5693C34.84 13.5489 34.6065 13.5873 34.3731 13.6847C34.1406 13.7714 33.9451 13.9256 33.7865 14.1473C33.6289 14.3584 33.5328 14.6605 33.4984 15.0537C33.464 15.4468 33.51 15.7774 33.6365 16.0455C33.7629 16.3135 33.9379 16.5162 34.1615 16.6535C34.3966 16.7812 34.6363 16.8557 34.8807 16.8771ZM26.4824 17.0419L33.7627 7.07836L35.5 7.23033L28.2038 17.1924L26.4824 17.0419Z" fill="#262626"/>
<defs>
<linearGradient id="paint0_linear_264_4288" x1="42.1048" y1="7.04406" x2="38.6329" y2="46.7356" gradientUnits="userSpaceOnUse">
<stop stop-color="#007D4F"/>
<stop offset="1" stop-color="#007D4F" stop-opacity="0"/>
</linearGradient>
</defs>
</svg>
