<svg width="1168" height="1017" viewBox="0 0 1168 1017" fill="none" xmlns="http://www.w3.org/2000/svg">
<path opacity="0.07" d="M583.897 -152V-151.203M583.897 -151.203V-54.0028M583.897 -151.203L681.081 -151.203M583.897 -151.203L583.101 -151.203M583.897 -54.0028V43.1976M583.897 -54.0028L681.081 -54.0028M583.897 -54.0028H583.101M583.897 43.1976V140.398M583.897 43.1976L681.081 43.1977M583.897 43.1976H583.101M583.897 140.398V237.599M583.897 140.398L681.081 140.398M583.897 140.398H583.101M583.897 237.599V334.799M583.897 237.599H681.081M583.897 237.599H583.101M583.897 334.799L583.897 431.203M583.897 334.799H681.081M583.897 334.799H583.101M681.081 -152V-151.203M681.081 -151.203V-54.0028M681.081 -151.203L778.265 -151.203M681.081 -54.0028V43.1977M681.081 -54.0028L778.265 -54.0028M681.081 43.1977V140.398M681.081 43.1977H778.265M681.081 140.398V237.599M681.081 140.398H778.265M681.081 237.599V334.799M681.081 237.599H778.265M681.081 334.799V431.203M681.081 334.799H778.265M778.265 -152V-151.203M778.265 -151.203V-54.0028M778.265 -151.203L875.448 -151.203M778.265 -54.0028V43.1977M778.265 -54.0028L875.448 -54.0028M778.265 43.1977L778.265 140.398M778.265 43.1977L875.448 43.1977M778.265 140.398V237.599M778.265 140.398L875.448 140.398M778.265 237.599V334.799M778.265 237.599L875.448 237.599M778.265 334.799V431.203M778.265 334.799L875.448 334.799M875.448 -152V-151.203M875.448 -151.203V-54.0028M875.448 -151.203L972.632 -151.203M875.448 -54.0028V43.1977M875.448 -54.0028L972.632 -54.0028M875.448 43.1977V140.398M875.448 43.1977H972.632M875.448 140.398V237.599M875.448 140.398H972.632M875.448 237.599V334.799M875.448 237.599H972.632M875.448 334.799V431.203M875.448 334.799H972.632M972.632 -152V-151.203M972.632 -151.203V-54.0028M972.632 -151.203L1069.82 -151.203M972.632 -54.0028V43.1977M972.632 -54.0028L1069.82 -54.0028M972.632 43.1977L972.632 140.398M972.632 43.1977L1069.82 43.1977M972.632 140.398V237.599M972.632 140.398L1069.82 140.398M972.632 237.599V334.799M972.632 237.599H1069.82M972.632 334.799V431.203M972.632 334.799H1069.82M1069.82 -152V-151.203M1069.82 -151.203V-54.0028M1069.82 -151.203L1166.2 -151.203M1069.82 -54.0028L1069.82 43.1977M1069.82 -54.0028L1166.2 -54.0028M1069.82 43.1977V140.398M1069.82 43.1977H1166.2M1069.82 140.398V237.599M1069.82 140.398H1166.2M1069.82 237.599V334.799M1069.82 237.599H1166.2M1069.82 334.799V431.203M1069.82 334.799H1166.2M1167 -152V431.203M583.897 432V432.797M583.897 432.797V529.997M583.897 432.797L681.081 432.797M583.897 432.797H583.101M583.897 529.997V627.198M583.897 529.997H681.081M583.897 529.997H583.101M583.897 627.198V724.398M583.897 627.198H681.081M583.897 627.198H583.101M583.897 724.398V821.599M583.897 724.398H681.081M583.897 724.398H583.101M583.897 821.599V918.799M583.897 821.599H681.081M583.897 821.599H583.101M583.897 918.799V1015.2M583.897 918.799H681.081M583.897 918.799H583.101M681.081 432V432.797M681.081 432.797V529.997M681.081 432.797H778.265M681.081 529.997V627.198M681.081 529.997H778.265M681.081 627.198V724.398M681.081 627.198H778.265M681.081 724.398V821.599M681.081 724.398H778.265M681.081 821.599V918.799M681.081 821.599H778.265M681.081 918.799V1015.2M681.081 918.799H778.265M778.265 432V432.797M778.265 432.797V529.997M778.265 432.797H875.448M778.265 529.997V627.198M778.265 529.997H875.448M778.265 627.198L778.265 724.398M778.265 627.198H875.448M778.265 724.398V821.599M778.265 724.398L875.448 724.398M778.265 821.599V918.799M778.265 821.599L875.448 821.599M778.265 918.799V1015.2M778.265 918.799L875.448 918.799M875.448 432V432.797M875.448 432.797V529.997M875.448 432.797H972.632M875.448 529.997V627.198M875.448 529.997H972.632M875.448 627.198V724.398M875.448 627.198H972.632M875.448 724.398V821.599M875.448 724.398H972.632M875.448 821.599V918.799M875.448 821.599H972.632M875.448 918.799V1015.2M875.448 918.799H972.632M972.632 432V432.797M972.632 432.797V529.997M972.632 432.797H1069.82M972.632 529.997V627.198M972.632 529.997H1069.82M972.632 627.198L972.632 724.398M972.632 627.198H1069.82M972.632 724.398V821.599M972.632 724.398H1069.82M972.632 821.599V918.799M972.632 821.599H1069.82M972.632 918.799V1015.2M972.632 918.799H1069.82M1069.82 432V432.797M1069.82 432.797V529.997M1069.82 432.797L1166.2 432.797M1069.82 529.997L1069.82 627.198M1069.82 529.997H1166.2M1069.82 627.198V724.398M1069.82 627.198H1166.2M1069.82 724.398V821.599M1069.82 724.398H1166.2M1069.82 821.599V918.799M1069.82 821.599H1166.2M1069.82 918.799V1015.2M1069.82 918.799H1166.2M1167 432V1015.2M1166.2 1016H583.101M0.796304 -152V-151.203M0.796304 -151.203L0.7963 -54.0028M0.796304 -151.203L97.9801 -151.203M0.796304 -151.203L2.12402e-05 -151.203M0.7963 -54.0028L0.796296 43.1976M0.7963 -54.0028L97.9801 -54.0028M0.7963 -54.0028H1.69922e-05M0.796296 43.1976L0.796291 140.398M0.796296 43.1976L97.9801 43.1977M0.796296 43.1976H1.27441e-05M0.796291 140.398L0.796287 237.599M0.796291 140.398L97.9801 140.398M0.796291 140.398H8.49608e-06M0.796287 237.599L0.796283 334.799M0.796287 237.599H97.9801M0.796287 237.599H4.24803e-06M0.796283 334.799L0.796279 431.203M0.796283 334.799H97.98M0.796283 334.799H0M97.9801 -152V-151.203M97.9801 -151.203V-54.0028M97.9801 -151.203L195.164 -151.203M97.9801 -54.0028L97.9801 43.1977M97.9801 -54.0028L195.164 -54.0028M97.9801 43.1977V140.398M97.9801 43.1977H195.164M97.9801 140.398V237.599M97.9801 140.398H195.164M97.9801 237.599L97.98 334.799M97.9801 237.599H195.164M97.98 334.799V431.203M97.98 334.799H195.164M195.164 -152V-151.203M195.164 -151.203V-54.0028M195.164 -151.203L292.348 -151.203M195.164 -54.0028V43.1977M195.164 -54.0028L292.348 -54.0028M195.164 43.1977L195.164 140.398M195.164 43.1977L292.348 43.1977M195.164 140.398V237.599M195.164 140.398L292.348 140.398M195.164 237.599V334.799M195.164 237.599L292.348 237.599M195.164 334.799V431.203M195.164 334.799L292.348 334.799M292.348 -152V-151.203M292.348 -151.203V-54.0028M292.348 -151.203L389.532 -151.203M292.348 -54.0028V43.1977M292.348 -54.0028L389.532 -54.0028M292.348 43.1977V140.398M292.348 43.1977H389.532M292.348 140.398V237.599M292.348 140.398H389.531M292.348 237.599V334.799M292.348 237.599H389.531M292.348 334.799V431.203M292.348 334.799H389.531M389.532 -152V-151.203M389.532 -151.203V-54.0028M389.532 -151.203L486.715 -151.203M389.532 -54.0028V43.1977M389.532 -54.0028L486.715 -54.0028M389.532 43.1977L389.531 140.398M389.532 43.1977L486.715 43.1977M389.531 140.398V237.599M389.531 140.398L486.715 140.398M389.531 237.599V334.799M389.531 237.599H486.715M389.531 334.799V431.203M389.531 334.799H486.715M486.715 -152V-151.203M486.715 -151.203V-54.0028M486.715 -151.203L583.102 -151.203M486.715 -54.0028L486.715 43.1977M486.715 -54.0028L583.102 -54.0028M486.715 43.1977V140.398M486.715 43.1977H583.102M486.715 140.398V237.599M486.715 140.398H583.102M486.715 237.599L486.715 334.799M486.715 237.599H583.102M486.715 334.799V431.203M486.715 334.799H583.102M0.796308 432V432.797M0.796308 432.797L0.796304 529.997M0.796308 432.797L97.9801 432.797M0.796308 432.797H2.54882e-05M0.796304 529.997L0.7963 627.198M0.796304 529.997H97.9801M0.796304 529.997H2.12402e-05M0.7963 627.198L0.796296 724.398M0.7963 627.198H97.9801M0.7963 627.198H1.69922e-05M0.796296 724.398L0.796291 821.599M0.796296 724.398H97.9801M0.796296 724.398H1.27441e-05M0.796291 821.599L0.796287 918.799M0.796291 821.599H97.9801M0.796291 821.599H8.49609e-06M0.796287 918.799L0.796283 1015.2M0.796287 918.799H97.98M0.796287 918.799H4.24804e-06M97.9801 432V432.797M97.9801 432.797V529.997M97.9801 432.797H195.164M97.9801 529.997L97.9801 627.198M97.9801 529.997H195.164M97.9801 627.198V724.398M97.9801 627.198H195.164M97.9801 724.398V821.599M97.9801 724.398H195.164M97.9801 821.599L97.98 918.799M97.9801 821.599H195.164M97.98 918.799V1015.2M97.98 918.799H195.164M195.164 432V432.797M195.164 432.797V529.997M195.164 432.797H292.348M195.164 529.997V627.198M195.164 529.997H292.348M195.164 627.198L195.164 724.398M195.164 627.198H292.348M195.164 724.398V821.599M195.164 724.398L292.348 724.398M195.164 821.599V918.799M195.164 821.599L292.348 821.599M195.164 918.799V1015.2M195.164 918.799L292.348 918.799M292.348 432V432.797M292.348 432.797V529.997M292.348 432.797H389.532M292.348 529.997V627.198M292.348 529.997H389.532M292.348 627.198V724.398M292.348 627.198H389.532M292.348 724.398V821.599M292.348 724.398H389.531M292.348 821.599V918.799M292.348 821.599H389.531M292.348 918.799V1015.2M292.348 918.799H389.531M389.532 432V432.797M389.532 432.797V529.997M389.532 432.797H486.715M389.532 529.997V627.198M389.532 529.997H486.715M389.532 627.198L389.531 724.398M389.532 627.198H486.715M389.531 724.398V821.599M389.531 724.398H486.715M389.531 821.599V918.799M389.531 821.599H486.715M389.531 918.799V1015.2M389.531 918.799H486.715M486.715 432V432.797M486.715 432.797V529.997M486.715 432.797L583.102 432.797M486.715 529.997L486.715 627.198M486.715 529.997H583.102M486.715 627.198V724.398M486.715 627.198H583.102M486.715 724.398V821.599M486.715 724.398H583.102M486.715 821.599L486.715 918.799M486.715 821.599H583.102M486.715 918.799V1015.2M486.715 918.799H583.102M583.102 1016H0" stroke="url(#paint0_radial_41_1855)"/>
<defs>
<radialGradient id="paint0_radial_41_1855" cx="0" cy="0" r="1" gradientUnits="userSpaceOnUse" gradientTransform="translate(583.5 432) rotate(90) scale(584 583.5)">
<stop/>
<stop offset="1" stop-opacity="0"/>
</radialGradient>
</defs>
</svg>
