<svg width="171" height="52" viewBox="0 0 171 52" fill="none" xmlns="http://www.w3.org/2000/svg">
<g clip-path="url(#clip0_140_211)">
<path d="M156.782 25.2296H150.826C146.983 25.2296 144.87 28.1185 144.87 33.1259V51.037H133.342V25.2296H128.538C124.696 25.2296 122.582 28.1185 122.582 33.1259V51.037H111.054V15.6H122.582V20.9926C124.503 16.7556 127.001 15.6 130.844 15.6H144.87V20.9926C146.791 16.7556 149.289 15.6 153.131 15.6H156.974L156.782 25.2296ZM108.364 36.0148H84.5393C85.1157 40.0593 87.6135 42.1778 91.6483 42.1778C94.7225 42.1778 96.836 40.8296 97.6045 38.7111L107.788 41.6C105.29 47.763 99.1416 51.4222 91.6483 51.4222C79.1596 51.4222 73.3955 41.6 73.3955 33.1259C73.3955 24.8444 78.391 15.0222 90.8798 15.0222C104.137 15.0222 108.556 25.037 108.556 32.5481C108.556 34.2815 108.556 35.2444 108.364 36.0148ZM97.4124 29.2741C97.2202 26.1926 94.9146 23.4963 91.0719 23.4963C87.4213 23.4963 85.3079 25.037 84.5393 29.2741H97.4124ZM53.4135 51.037H63.4045L76.0854 15.7926H64.5573L58.409 36.4L52.2607 15.6H40.7326L53.4135 51.037ZM6.53258 51.037H17.8685V25.2296H28.8202V51.037H40.1562V15.6H17.8685V13.4815C17.8685 11.1704 19.5978 9.62963 22.0955 9.62963H28.8202V0H20.3663C12.1045 0 6.53258 5.2 6.53258 12.7111V15.6H0V25.2296H6.53258V51.037Z" fill="#1DBF73"/>
<path d="M163.89 51.9999C167.733 51.9999 170.999 48.7258 170.999 44.874C170.999 41.0221 167.733 37.748 163.89 37.748C160.048 37.748 156.781 41.0221 156.781 44.874C156.781 48.7258 160.048 51.9999 163.89 51.9999Z" fill="#1DBF73"/>
</g>
<defs>
<clipPath id="clip0_140_211">
<rect width="171" height="52" fill="white"/>
</clipPath>
</defs>
</svg>
