<svg width="141" height="34" viewBox="0 0 141 34" fill="none" xmlns="http://www.w3.org/2000/svg">
<g clip-path="url(#clip0_140_226)">
<path d="M-0.0400391 9.5625C-0.0400391 4.28128 4.24124 0 9.52246 0H24.3975C29.6787 0 33.96 4.28128 33.96 9.5625V24.4375C33.96 29.7187 29.6787 34 24.3975 34H9.52246C4.24124 34 -0.0400391 29.7187 -0.0400391 24.4375V9.5625Z" fill="#E63946"/>
<path d="M14.0329 24.4425C13.9714 24.3885 13.7582 24.1267 13.6926 24.049L12.9763 23.1993C11.171 21.0534 9.23182 18.5072 8.41063 15.783C7.76694 13.6476 8.03341 11.319 9.12675 9.36451C10.2235 7.40815 12.0594 5.97211 14.224 5.3773C15.821 4.937 17.5075 4.93672 19.1047 5.37655C19.3529 5.4429 19.9314 5.62406 20.149 5.7454C20.3829 5.8043 20.8498 6.05716 21.0727 6.17588C22.4503 6.90964 23.3548 7.71464 24.1614 9.06C25.2979 10.979 25.6225 13.271 25.0635 15.4295C24.5044 17.6302 23.2334 19.5664 21.8841 21.3606C21.6711 21.6448 21.4529 21.925 21.2296 22.2012C21.1625 22.2851 21.0105 22.4853 20.9457 22.5473C20.7133 22.8833 20.1798 23.4637 19.8979 23.8075C18.9135 24.9868 17.9228 26.1609 16.926 27.3297C16.8003 27.487 16.6884 27.5706 16.5383 27.3905C15.7159 26.4034 14.8496 25.4327 14.0329 24.4425Z" fill="#FFF7F4"/>
<path d="M12.7899 11.1629C12.8216 11.0992 12.8591 10.9771 12.8828 10.9078C13.1251 10.1987 13.4755 9.58735 14.055 9.09612C14.4637 8.75392 14.9518 8.5199 15.4745 8.41556C15.9485 8.32437 16.6823 8.35345 17.1932 8.35464L19.4035 8.35297L21.916 8.35004C22.3213 8.35072 22.8603 8.33685 23.2539 8.36921C23.3599 8.48547 23.4288 8.53871 23.3653 8.69605C23.4894 8.75967 23.5977 9.11205 23.6393 9.2413C24.0946 10.6859 23.9535 12.2526 23.2475 13.5926C22.2935 15.4478 20.612 16.6582 18.891 17.7489C17.9423 18.3502 16.9296 18.9721 16.1584 19.8035C15.758 20.2352 15.5959 20.5448 15.3135 21.0422C15.2391 20.9446 15.0812 20.8022 14.9891 20.7117C14.6778 20.4056 14.3092 20.1139 14.0066 19.8015C13.0408 19.0223 12.1274 18.1802 11.2725 17.2808C11.4047 16.6219 11.6408 15.8189 11.8088 15.1563L12.7899 11.1629Z" fill="#C81E3A"/>
<path d="M23.3616 8.69531C23.4857 8.75893 23.5941 9.11131 23.6356 9.24056C24.0909 10.6852 23.9498 12.2518 23.2438 13.5919C22.2898 15.4471 20.6083 16.6574 18.8874 17.7482C17.9386 18.3495 16.9259 18.9713 16.1548 19.8027C15.7543 20.2345 15.5922 20.544 15.3098 21.0415C15.2354 20.9439 15.0775 20.8015 14.9854 20.711C14.6741 20.4048 14.3055 20.1131 14.0029 19.8008C14.0876 19.4168 14.2109 19.0365 14.2963 18.6551C14.5262 17.6274 14.844 16.5742 15.0285 15.5406C15.2604 15.5557 15.5775 15.5478 15.8164 15.5481L17.2059 15.546C17.5486 15.5437 18.2812 15.5626 18.5908 15.524C18.7734 15.5026 18.9499 15.4447 19.1097 15.3537C19.8159 14.9431 20.2671 13.5874 20.4745 12.8174C20.4018 12.7063 20.3897 12.6619 20.2515 12.6605C19.7286 12.655 19.2053 12.6568 18.6823 12.6573L15.6801 12.6544C15.7895 12.3755 15.8264 12.0593 15.936 11.7845C16.2059 11.1279 16.9801 11.2686 17.5479 11.2661C18.5599 11.2619 19.5656 11.2897 20.5768 11.2964C20.8023 11.2979 21.0683 11.3094 21.2897 11.2874C21.4458 11.2723 21.5986 11.2327 21.7423 11.1699C22.6603 10.7747 23.034 9.53187 23.3616 8.69531Z" fill="#FCE0DC"/>
<path d="M8.56541 10.625L8.60619 11.2559C8.46231 12.252 8.79876 14.8816 11.2956 17.4316C12.0925 18.2064 13.7195 19.7625 13.8523 19.7891C14.0183 19.8223 17.9031 22.7109 17.239 25.8984C17.1549 26.3023 17.0935 26.6049 17.0508 26.824C17.172 26.5074 17.2768 26.1455 17.3386 25.8984C17.1244 26.7926 16.8239 27.9879 17.0508 26.824C16.9113 27.1881 16.7502 27.4922 16.6081 27.4922C14.4624 25.0929 10.5435 20.4509 9.13024 17.925C8.66604 17.0954 8.40671 16.1543 8.21359 15.2234C7.92165 13.8163 7.82134 11.9414 8.56541 10.625Z" fill="#FCE0DC"/>
<path d="M10.4022 11.3633C10.434 11.4232 10.4364 11.4188 10.4313 11.4854L10.3986 11.5074L10.3623 11.4944C10.3659 11.4421 10.3825 11.4113 10.4022 11.3633Z" fill="#9E041F"/>
<path d="M23.8599 3.85156C23.9169 4.25033 23.9699 4.6367 24.0845 5.02454C24.4219 5.89678 25.1297 5.91726 25.9476 6.04913C24.2413 6.29674 24.1467 6.56428 23.8558 8.17888C23.6041 6.54812 23.3742 6.31964 21.7529 6.05531C22.7274 5.90007 23.2983 5.9219 23.6705 4.89358C23.7432 4.5429 23.8005 4.20462 23.8599 3.85156Z" fill="white"/>
<path d="M23.8564 3.85156C23.9134 4.25033 23.9664 4.6367 24.0811 5.02454L24.0683 5.05136L24.0501 5.04161C24.0414 5.00073 24.0261 4.92076 24.0128 4.88515C23.9359 4.67924 23.9181 4.382 23.8654 4.18683C23.8111 4.21924 23.7329 4.76156 23.6904 4.89699L23.667 4.89358C23.7397 4.5429 23.797 4.20462 23.8564 3.85156Z" fill="#E5343C"/>
<path d="M18.486 17.9384C13.0423 20.2154 15.0826 25.2091 16.7011 27.4931L22.6146 20.3717C23.6353 19.1348 24.9088 16.3742 25.1134 15.0571C25.7939 11.7119 24.3573 9.11869 23.554 8.24023C25.1985 13.3845 20.8605 16.8491 18.486 17.9384Z" fill="#FFF7F4"/>
<path d="M12.1827 26.1807C11.9333 26.2318 11.6534 26.3425 11.423 26.4492C11.0487 26.6224 10.5821 26.9088 10.4416 27.3228C10.3885 27.4794 10.4064 27.6367 10.4799 27.7834C10.766 28.3546 11.5585 28.6497 12.125 28.8443C14.6131 29.699 19.6376 29.7145 22.018 28.5394C22.3672 28.3669 22.8257 28.0929 22.9505 27.6959C23.0048 27.5229 22.9792 27.3419 22.8951 27.1831C22.5577 26.547 21.6032 26.3052 20.9654 26.1079C20.97 26.1062 20.9744 26.104 20.9792 26.1028C21.0681 26.0807 21.2235 26.1357 21.3101 26.1577C21.8125 26.2855 22.3116 26.4467 22.7672 26.6981C23.1127 26.8888 23.4694 27.1671 23.5802 27.5643C23.65 27.8145 23.6021 28.0742 23.4743 28.2968C23.0513 29.033 21.724 29.46 20.9352 29.6755C18.2689 30.4038 13.1737 30.4134 10.7572 29.0211C10.3713 28.7988 9.92597 28.4709 9.81292 28.013C9.75089 27.7619 9.80892 27.509 9.94405 27.2931C10.3621 26.625 11.4736 26.3007 12.2058 26.1343L12.1827 26.1807Z" fill="#F0BBBA"/>
<path d="M20.3291 26.5977C20.7046 26.7326 21.2432 26.9067 21.4358 27.2913C21.4962 27.4118 21.5011 27.544 21.4558 27.6703C21.3352 28.0067 20.9578 28.2152 20.6522 28.3542C18.7328 29.2269 14.9837 29.2172 13.0081 28.474C12.6389 28.3351 12.1317 28.0973 11.9654 27.7102C11.91 27.5813 11.8974 27.4523 11.9527 27.3211C12.0791 27.0209 12.4716 26.836 12.752 26.7142L12.7455 26.7803C12.6486 26.8483 12.5551 26.9184 12.4826 27.0131C12.4059 27.1134 12.36 27.2349 12.3831 27.3619C12.4137 27.5297 12.5528 27.6624 12.6857 27.7583C13.9739 28.6871 17.3457 28.6182 18.8632 28.3737C19.447 28.2796 20.6088 28.0256 20.9481 27.5326C21.014 27.4369 21.0456 27.3277 21.0227 27.2123C20.9548 26.8703 20.5946 26.7803 20.3469 26.6102C20.3409 26.6061 20.335 26.6018 20.3291 26.5977Z" fill="#F0BBBA"/>
<path d="M46.9427 25H43.2707V8.5984H55.5841V11.9032H46.9427V15.6486H55.2169V18.929H46.9427V25ZM60.855 25H57.2074V8.5984H60.855V25ZM66.564 11.2912H62.9654L62.9164 8.5984H66.564V11.2912ZM66.6374 25H62.9654V12.6866H66.6374V25ZM74.3408 25.2448C70.2771 25.2448 68.0984 22.7723 68.0984 18.88C68.0984 14.9387 70.424 12.4418 74.5366 12.4418C77.8169 12.4418 80.216 14.4491 80.216 17.4846V17.7784H76.544V17.5826C76.544 16.1872 75.7606 15.7221 74.2428 15.7221C72.4803 15.7221 71.7214 16.5544 71.7214 18.8555C71.7214 21.1322 72.4803 21.9645 74.2428 21.9645C75.7606 21.9645 76.544 21.4994 76.544 20.104V19.9082H80.216V20.2019C80.216 23.2374 77.7435 25.2448 74.3408 25.2448ZM85.5501 25H81.9026V8.5984H85.5501V17.2398H87.3616L90.1524 12.6866H94.3629L90.3482 18.5618L94.3384 25H90.1279L87.4351 20.5202H85.5501V25ZM99.13 25H95.458V8.5984H99.3748L104.687 16.8237L106.058 19.0269H106.303L106.254 16.8237V8.5984H109.926V25H106.009L100.917 17.2398L99.3259 14.7184H99.0811L99.13 17.2398V25ZM115.644 11.2912H112.045L111.996 8.5984H115.644V11.2912ZM115.717 25H112.045V12.6866H115.717V25ZM123.37 25.049C120.163 25.049 118.62 23.8739 118.62 20.9608V15.7221H116.662V12.6866H118.718L119.404 9.8224H122.292V12.6866H125.769V15.7221H122.292V20.5446C122.292 21.6218 122.66 21.7442 124.251 21.7442H125.769V24.8042C125.181 24.9266 124.226 25.049 123.37 25.049ZM132.862 25.2448C128.627 25.2448 126.693 22.7723 126.693 18.88C126.693 14.9387 129.043 12.4418 132.886 12.4418C136.583 12.4418 138.761 14.645 138.761 17.8518C138.761 18.5373 138.663 19.2472 138.59 19.6634H130.144C130.218 21.377 130.903 22.0624 132.911 22.0624C134.379 22.0624 135.016 21.7442 135.016 20.9853V20.8384H138.639V21.0832C138.639 23.7026 136.387 25.2448 132.862 25.2448ZM132.764 15.4528C131.001 15.4528 130.316 16.1382 130.169 17.4357H135.236C135.31 16.1627 134.477 15.4528 132.764 15.4528Z" fill="#C4162A"/>
</g>
<defs>
<clipPath id="clip0_140_226">
<rect width="141" height="34" fill="white"/>
</clipPath>
</defs>
</svg>
