<svg width="173" height="34" viewBox="0 0 173 34" fill="none" xmlns="http://www.w3.org/2000/svg">
<rect width="34" height="34" rx="10.88" fill="#6750A4"/>
<path d="M16.385 12.2988L9.03884 16.4617C8.76685 16.6158 8.42969 16.4193 8.42969 16.1067V13.1747C8.42969 12.9298 8.56137 12.7038 8.77444 12.5831L16.3892 8.26806C16.8064 8.03161 17.3173 8.03241 17.7338 8.27016L25.3516 12.6185C25.5636 12.7395 25.6945 12.9649 25.6945 13.209V16.1959C25.6945 16.51 25.3544 16.7063 25.0824 16.5491L17.7359 12.3045C17.3185 12.0633 16.8045 12.0611 16.385 12.2988Z" fill="white"/>
<path d="M8.42969 18.6541C8.42969 18.4288 8.61236 18.2461 8.83769 18.2461H11.2828C11.5082 18.2461 11.6908 18.4288 11.6908 18.6541V25.7032C11.6908 25.9285 11.5082 26.1112 11.2828 26.1112H8.83769C8.61236 26.1112 8.42969 25.9285 8.42969 25.7032V18.6541Z" fill="white"/>
<path d="M22.4336 18.6541C22.4336 18.4288 22.6163 18.2461 22.8416 18.2461H25.2867C25.5121 18.2461 25.6947 18.4288 25.6947 18.6541V25.7032C25.6947 25.9285 25.5121 26.1112 25.2867 26.1112H22.8416C22.6163 26.1112 22.4336 25.9285 22.4336 25.7032V18.6541Z" fill="white"/>
<rect x="23.0078" y="21.123" width="3.26113" height="12.0854" transform="rotate(90 23.0078 21.123)" fill="white"/>
<rect x="18.1953" y="18.2383" width="2.04109" height="5.54009" rx="1.02054" transform="rotate(90 18.1953 18.2383)" fill="white"/>
<path d="M44.9669 20.4316C44.9669 21.6847 45.4272 22.6766 46.348 23.4076C47.2783 24.129 48.5171 24.4897 50.0644 24.4897C51.5073 24.4897 52.6131 24.1954 53.382 23.6069C54.1509 23.0184 54.5354 22.2162 54.5354 21.2005C54.5354 20.1848 54.1794 19.4017 53.4675 18.8511C52.7555 18.291 51.4645 17.7405 49.5945 17.1994C47.2498 16.5254 45.5412 15.6996 44.4685 14.7218C43.4053 13.7346 42.8737 12.5195 42.8737 11.0767C42.8737 9.44394 43.524 8.09599 44.8245 7.03282C46.1344 5.96016 47.8336 5.42383 49.922 5.42383C51.3459 5.42383 52.6131 5.69911 53.7238 6.24968C54.8439 6.80026 55.7077 7.55966 56.3153 8.52791C56.9323 9.49615 57.2408 10.5546 57.2408 11.7032H54.4927C54.4927 10.4502 54.094 9.46768 53.2966 8.75573C52.4992 8.03429 51.3744 7.67357 49.922 7.67357C48.574 7.67357 47.5204 7.97259 46.761 8.57062C46.011 9.15917 45.6361 9.98028 45.6361 11.034C45.6361 11.8788 45.9921 12.5955 46.704 13.184C47.4254 13.7631 48.6452 14.2947 50.3634 14.7788C52.0911 15.2629 53.439 15.7992 54.4072 16.3878C55.385 16.9668 56.1064 17.6455 56.5716 18.4239C57.0462 19.2023 57.2835 20.1184 57.2835 21.1721C57.2835 22.8522 56.6285 24.2002 55.3185 25.2159C54.0086 26.2221 52.2572 26.7252 50.0644 26.7252C48.6405 26.7252 47.3115 26.4547 46.0775 25.9136C44.8435 25.363 43.8894 24.6131 43.2155 23.6639C42.551 22.7146 42.2188 21.6372 42.2188 20.4316H44.9669Z" fill="#6750A4"/>
<path d="M61.783 18.4239C62.9981 17.5411 64.7115 17.0997 66.9232 17.0997H69.4862V15.8894C69.4862 14.9686 69.211 14.2377 68.6604 13.6966C68.1098 13.1461 67.2982 12.8708 66.2255 12.8708C65.2858 12.8708 64.4979 13.1081 63.8619 13.5827C63.2259 14.0573 62.9079 14.6316 62.9079 15.3056H60.2594C60.2594 14.5367 60.53 13.7963 61.0711 13.0844C61.6216 12.3629 62.362 11.7934 63.2923 11.3757C64.2321 10.958 65.262 10.7492 66.3822 10.7492C68.1573 10.7492 69.5479 11.1953 70.5542 12.0876C71.5604 12.9704 72.0825 14.1902 72.1204 15.747V22.838C72.1204 24.2524 72.3008 25.3773 72.6615 26.2126V26.4404H69.8992C69.7473 26.1367 69.6239 25.5956 69.529 24.8172C68.3044 26.0892 66.8426 26.7252 65.1434 26.7252C63.6246 26.7252 62.3763 26.2981 61.3985 25.4437C60.4303 24.5799 59.9462 23.4882 59.9462 22.1688C59.9462 20.5645 60.5585 19.3162 61.783 18.4239ZM63.4062 23.7351C63.9568 24.2002 64.664 24.4328 65.5278 24.4328C66.3537 24.4328 67.1368 24.2192 67.8772 23.792C68.6177 23.3648 69.154 22.8095 69.4862 22.1261V18.965H67.4216C64.1941 18.965 62.5804 19.9095 62.5804 21.7986C62.5804 22.6244 62.8557 23.2699 63.4062 23.7351Z" fill="#6750A4"/>
<path d="M78.2432 21.6989C78.2906 22.5817 78.6419 23.2842 79.2968 23.8062C79.9613 24.3188 80.8346 24.5751 81.9168 24.5751C82.9135 24.5751 83.7109 24.3758 84.3089 23.9771C84.9165 23.5689 85.2202 23.0279 85.2202 22.3539C85.2202 21.6419 84.9497 21.0914 84.4086 20.7022C83.877 20.3035 82.942 19.9617 81.6035 19.677C80.2746 19.3922 79.2162 19.0505 78.4283 18.6518C77.6499 18.2531 77.0708 17.7784 76.6911 17.2279C76.3209 16.6773 76.1358 16.0223 76.1358 15.2629C76.1358 14.0004 76.6674 12.9325 77.7306 12.0592C78.8032 11.1858 80.1702 10.7492 81.8314 10.7492C83.578 10.7492 84.9924 11.2001 86.0746 12.1019C87.1662 13.0037 87.712 14.157 87.712 15.5619H85.0636C85.0636 14.8405 84.7551 14.2187 84.1381 13.6966C83.5305 13.1745 82.7616 12.9135 81.8314 12.9135C80.8726 12.9135 80.1227 13.1223 79.5816 13.54C79.0405 13.9577 78.77 14.5035 78.77 15.1775C78.77 15.8135 79.0216 16.2929 79.5247 16.6156C80.0278 16.9384 80.9343 17.2469 82.2443 17.5411C83.5638 17.8354 84.6317 18.1866 85.448 18.5948C86.2644 19.003 86.8672 19.4966 87.2564 20.0757C87.6551 20.6452 87.8544 21.3429 87.8544 22.1688C87.8544 23.5452 87.3039 24.6511 86.2027 25.4864C85.1016 26.3123 83.6729 26.7252 81.9168 26.7252C80.6828 26.7252 79.5911 26.5069 78.6419 26.0702C77.6926 25.6336 76.9474 25.026 76.4063 24.2477C75.8748 23.4598 75.609 22.6102 75.609 21.6989H78.2432Z" fill="#6750A4"/>
<path d="M89.4207 11.034H92.2258V7.30336H94.86V11.034H97.7362V13.0701H94.86V22.6244C94.86 23.2414 94.9881 23.7066 95.2444 24.0198C95.5007 24.3236 95.9374 24.4755 96.5544 24.4755C96.8582 24.4755 97.2758 24.4185 97.8074 24.3046V26.4404C97.1145 26.6303 96.4405 26.7252 95.7855 26.7252C94.6084 26.7252 93.7208 26.3692 93.1228 25.6573C92.5248 24.9454 92.2258 23.9344 92.2258 22.6244V13.0701H89.4207V11.034Z" fill="#6750A4"/>
<path d="M102.221 18.4239C103.437 17.5411 105.15 17.0997 107.362 17.0997H109.925V15.8894C109.925 14.9686 109.649 14.2377 109.099 13.6966C108.548 13.1461 107.737 12.8708 106.664 12.8708C105.724 12.8708 104.936 13.1081 104.3 13.5827C103.664 14.0573 103.346 14.6316 103.346 15.3056H100.698C100.698 14.5367 100.968 13.7963 101.51 13.0844C102.06 12.3629 102.801 11.7934 103.731 11.3757C104.671 10.958 105.701 10.7492 106.821 10.7492C108.596 10.7492 109.986 11.1953 110.993 12.0876C111.999 12.9704 112.521 14.1902 112.559 15.747V22.838C112.559 24.2524 112.739 25.3773 113.1 26.2126V26.4404H110.338C110.186 26.1367 110.062 25.5956 109.967 24.8172C108.743 26.0892 107.281 26.7252 105.582 26.7252C104.063 26.7252 102.815 26.2981 101.837 25.4437C100.869 24.5799 100.385 23.4882 100.385 22.1688C100.385 20.5645 100.997 19.3162 102.221 18.4239ZM103.845 23.7351C104.395 24.2002 105.102 24.4328 105.966 24.4328C106.792 24.4328 107.575 24.2192 108.316 23.792C109.056 23.3648 109.592 22.8095 109.925 22.1261V18.965H107.86C104.633 18.965 103.019 19.9095 103.019 21.7986C103.019 22.6244 103.294 23.2699 103.845 23.7351Z" fill="#6750A4"/>
<path d="M115.677 19.919H119.963C119.963 22.2067 121.33 23.3506 124.064 23.3506C125.08 23.3506 125.872 23.1465 126.442 22.7383C127.011 22.3207 127.296 21.7416 127.296 21.0012C127.296 20.1943 127.011 19.5773 126.442 19.1501C125.872 18.7135 124.847 18.2578 123.366 17.7832C121.885 17.2991 120.713 16.8244 119.849 16.3593C117.495 15.0873 116.318 13.3739 116.318 11.2191C116.318 10.0989 116.631 9.10221 117.258 8.22889C117.894 7.34608 118.8 6.65787 119.977 6.16425C121.164 5.67064 122.493 5.42383 123.964 5.42383C125.445 5.42383 126.765 5.69437 127.923 6.23545C129.081 6.76703 129.978 7.52169 130.614 8.49943C131.259 9.47717 131.582 10.5878 131.582 11.8313H127.31C127.31 10.8821 127.011 10.1464 126.413 9.6243C125.815 9.09272 124.975 8.82693 123.893 8.82693C122.849 8.82693 122.037 9.05 121.458 9.49615C120.879 9.93281 120.59 10.5119 120.59 11.2333C120.59 11.9073 120.927 12.4721 121.601 12.9277C122.284 13.3834 123.286 13.8105 124.605 14.2092C127.035 14.9402 128.805 15.8467 129.916 16.9289C131.027 18.011 131.582 19.359 131.582 20.9727C131.582 22.7668 130.903 24.1765 129.546 25.2017C128.188 26.2174 126.361 26.7252 124.064 26.7252C122.469 26.7252 121.017 26.4357 119.707 25.8566C118.397 25.2681 117.395 24.466 116.702 23.4503C116.019 22.4346 115.677 21.2575 115.677 19.919Z" fill="#6750A4"/>
<path d="M135.028 11.034V7.24641H139.143V11.034H141.777V14.0526H139.143V21.7416C139.143 22.3112 139.252 22.7193 139.47 22.9662C139.689 23.213 140.106 23.3364 140.723 23.3364C141.179 23.3364 141.583 23.3031 141.934 23.2367V26.355C141.127 26.6018 140.296 26.7252 139.442 26.7252C136.556 26.7252 135.085 25.2681 135.028 22.3539V14.0526H132.778V11.034H135.028Z" fill="#6750A4"/>
<path d="M145.28 18.3527C146.485 17.4794 148.232 17.038 150.52 17.0285H152.414V16.1457C152.414 15.4338 152.228 14.8642 151.858 14.4371C151.498 14.0099 150.923 13.7963 150.135 13.7963C149.442 13.7963 148.897 13.9624 148.498 14.2947C148.109 14.6269 147.914 15.0825 147.914 15.6616H143.799C143.799 14.7693 144.074 13.9434 144.625 13.184C145.175 12.4246 145.954 11.8313 146.96 11.4042C147.966 10.9675 149.096 10.7492 150.349 10.7492C152.247 10.7492 153.752 11.2286 154.863 12.1873C155.983 13.1366 156.543 14.475 156.543 16.2027V22.8807C156.552 24.3426 156.756 25.4485 157.155 26.1984V26.4404H152.997C152.808 26.0702 152.67 25.6098 152.584 25.0593C151.588 26.1699 150.292 26.7252 148.697 26.7252C147.188 26.7252 145.935 26.2886 144.938 25.4152C143.951 24.5419 143.457 23.4408 143.457 22.1118C143.457 20.4791 144.065 19.2261 145.28 18.3527ZM148.113 23.0801C148.474 23.4123 148.968 23.5784 149.594 23.5784C150.202 23.5784 150.762 23.4455 151.274 23.1797C151.787 22.9045 152.167 22.539 152.414 22.0833V19.4349H150.876C148.816 19.4349 147.72 20.1469 147.587 21.5707L147.572 21.8128C147.572 22.3254 147.753 22.7478 148.113 23.0801Z" fill="#6750A4"/>
<path d="M158.166 11.034H162.594L165.456 20.6167L168.304 11.034H172.718L166.524 28.8326L166.183 29.6442C165.262 31.6566 163.743 32.6628 161.626 32.6628C161.028 32.6628 160.421 32.5727 159.804 32.3923V29.274L160.43 29.2882C161.208 29.2882 161.788 29.1696 162.167 28.9323C162.556 28.6949 162.86 28.301 163.079 27.7504L163.563 26.4832L158.166 11.034Z" fill="#6750A4"/>
</svg>
