<svg width="711" height="191" viewBox="0 0 711 191" fill="none" xmlns="http://www.w3.org/2000/svg">
<path d="M507.034 40.5857C503.43 28.8528 508.423 16.7207 519.324 9.81416C538.353 -2.15481 565.629 -2.95763 586.184 6.21271C589.255 7.59528 591.749 9.76725 595.223 10.3005C612.407 12.9379 627.234 27.1416 624.34 43.8128C630.06 48.645 636.751 61.3017 638.991 68.2749C641.292 75.4218 640.509 79.0051 636.759 85.218C644.233 93.1453 643.343 101.494 638.931 110.404C646.362 123.783 640.832 136.3 629.083 145.622C622.212 151.263 614.037 153.751 605.501 156.398C603.471 157.027 600.138 159.325 597.395 160.344C596.913 164.819 595.137 168.083 591.62 171.254C597.352 169.669 609.04 165.185 614.136 168.547C624.895 175.651 595.245 183.085 611.147 187.693C620.913 190.524 707.064 185.96 710.87 188.313L710.779 188.692C709.313 189.303 701.899 189.057 699.947 189.056L672.168 189.073L641.533 189.539C632.709 189.736 616.634 191.053 608.206 187.757C602.925 185.691 605.449 180.189 609.891 178.126C615.779 175.389 617.383 168.221 608.623 168.427C598.01 169.59 587.328 174.589 576.784 176.568C573.542 177.676 570.381 179.739 567.414 181.302C555.45 187.608 526.828 192.789 523.246 175.023C520.597 173.597 519.707 172.958 517.965 170.661C499.925 178.78 476.584 169.857 492.839 151.93C441.853 137.774 458.09 121.688 491.161 99.4595C485.22 100.205 476.912 100.414 470.906 100.617C469.222 100.612 467.539 100.567 465.857 100.484C443.059 99.1442 441.208 85.5444 457.602 73.2684C455.07 68.1515 454.019 65.1669 453.584 59.5444C444.149 59.6007 434.63 59.9684 425.16 59.9207L277.543 59.0885L252.453 58.969C248.393 58.956 242.09 58.7728 238.181 59.176C241.178 68.7105 226.871 66.3146 223.977 68.2099C213.939 74.7842 203.897 81.8078 193.937 88.5626C192.147 90.1874 190.017 91.5331 188.44 92.9432C187.149 93.8896 186.701 94.3414 186.039 94.7681C184.697 95.6341 171.897 103.81 169.473 106.104C174.97 118.9 181.127 131.451 187.923 143.711C191.287 149.747 194.765 155.73 198.355 161.656C201.38 166.694 207.18 174.782 208.215 180.109C211.855 181.422 219.616 183.628 220.934 187.103C220.582 190.526 214.182 190.22 211.453 189.818C203.161 188.599 192.939 191.115 194.802 180.247C189.264 175.274 177.448 153.717 173.183 146.743C167.507 137.463 163.989 132.352 156.916 123.559C156.902 126.452 156.892 129.111 157.193 131.983C158.101 140.664 161.121 148.193 156.288 156.445C153.226 161.673 147.754 167.998 145.292 173.259L145.156 173.553C145.528 178.718 148.616 182.206 147.938 187.003C147.84 187.7 147.17 188.794 146.385 189.08C141.091 191.006 134.304 190.588 128.717 190.012C127.996 189.928 125.437 188.339 124.816 188.392C123.023 188.547 120.933 189.07 119.217 189.283C114.607 189.857 108.493 190.119 104.027 189.064C100.493 188.229 97.6725 183.635 94.1786 182.909C91.693 182.391 87.2225 185.35 85.1085 186.538C81.8403 188.373 79.5788 189.594 75.6273 189.944C69.1542 190.517 62.2123 190.336 55.6936 190.316C43.5286 190.326 31.3637 190.224 19.201 190.009C15.384 189.975 2.9378 190.389 0.273453 189.814L0 189.344C1.32735 188.33 14.5574 188.886 17.2452 188.911L49.9773 189.124C58.3253 189.212 66.6209 189.525 74.9634 188.839C82.5997 188.211 85.9522 183.307 92.9981 181.542C98.548 182.594 98.9725 184.729 103.162 187.229C107.577 189.863 118.588 188.513 123.53 187.35C123.85 186.868 125.942 185.882 126.334 185.589C129.711 183.914 133.804 182.02 136.332 180.32C131.806 174.851 113.93 147.121 114.769 140.872C116.493 128.032 126.677 110.634 131.81 98.2614C132.41 96.8135 130.433 96.8572 129.954 95.637C130.605 90.2573 132.855 84.887 134.007 79.3753C134.651 76.4052 135.107 73.4032 135.373 70.3851C135.884 64.3164 135.638 55.1761 138.337 49.7163C140.329 45.6865 146.224 43.8121 150.53 42.5288L153.697 34.9732C153.512 34.8577 153.327 34.7406 153.143 34.6228C145.609 29.7842 147.192 18.648 156.306 16.4201C162.285 14.9587 166.109 17.12 171.643 16.3633C178.889 19.7397 174.515 22.3074 173.34 26.2892C171.365 32.9841 172.251 37.7891 165.375 42.3668C174.539 46.6402 181.633 52.6762 190.858 56.8648C192.047 57.4052 194.675 58.3314 195.478 59.0195L195.379 59.5295C188.393 59.0648 174.984 48.5107 168.462 45.0977C160.878 41.1289 157.961 43.5807 155.075 35.0047C154.243 37.5546 153.165 39.6506 152.382 41.9762C154.738 43.6788 156.891 44.9109 159.251 47.2945C160.969 49.0303 163.163 52.1067 163.163 52.1067C164.882 59.6702 167.352 72.2488 169.759 79.4072L170.028 79.6689C171.204 77.934 170.319 60.7284 172.963 57.0749L173.38 57.0316C173.699 57.9037 173.989 58.7054 174.26 59.5961C185.803 65.2982 194.976 69.816 208.473 68.7191C212.918 68.3577 218.286 68.0748 222.362 66.3174C222.494 63.9204 222.335 63.5471 223.612 61.491C217.506 60.2574 205.036 61.0327 198.517 60.7576C196.333 60.6653 193.083 61.9923 191.551 63.5057C190.804 63.4084 191.094 63.5672 190.643 63.0292C190.988 61.5548 193.961 60.1309 195.379 59.5295C198.747 59.6576 202.333 59.4345 205.821 59.5665C212.325 59.8129 219.017 60.1743 225.502 59.9965C228.742 59.9078 231.405 57.7473 235.096 57.7552L453.617 58.498C453.237 41.534 464.714 20.0691 481.31 11.8403C484.622 10.1976 492.148 8.34371 495.759 9.67347C503.4 12.4879 497.85 24.1274 498.528 29.729C498.978 34.7157 499.58 38.9584 501.97 43.5755C503.86 42.5488 505.241 41.7882 507.034 40.5857ZM508.238 39.8582C517.522 34.8344 537.411 24.9428 545.259 36.6532C546.588 40.352 546.906 41.6735 547.155 45.5993C550.57 44.5577 554.922 43.3674 558.486 42.8554C556.293 36.6039 556.938 29.8062 560.284 23.9985C563.866 17.6272 570.14 12.8812 577.648 10.8684C582.228 9.59621 585.513 9.51109 590.141 9.70224C580.013 4.10733 566.481 0.492481 554.603 1.14514C540.116 1.96491 524.79 5.13125 514.551 15.4272C509.876 20.1271 506.669 28.0138 507.081 34.4178C507.215 36.269 507.602 38.0969 508.238 39.8582ZM454.905 58.4416C458.975 58.4881 463.043 58.5579 467.112 58.6517C470.605 58.7349 475.594 59.0332 478.938 58.8992C484.319 54.5809 494.398 48.0149 500.709 44.3756C498.695 39.1637 497.784 35.2986 497.251 29.7869C496.563 22.6936 503.697 8.71733 489.929 10.546C467.69 14.5144 455.868 39.6174 454.905 58.4416ZM136.169 177.623L138.921 180.472C141.226 179.377 141.743 179.175 143.029 177.297C143.758 173.885 136.307 156.436 134.563 152.615L130.178 142.625C129.698 143.65 129.301 144.868 128.388 145.508L127.959 145.316C126.868 140.667 144.085 120.035 146.967 115.174C146.294 114.237 145.669 113.773 145.764 112.868C148.172 112.047 154.526 119.102 156.057 120.777C158.862 114.236 162.625 110.67 167.763 105.606C166.701 103.086 165.66 100.558 164.641 98.0238C158.236 99.1092 139.41 99.4584 133.406 97.6549L125.957 114.353C123.783 119.138 121.534 123.859 119.536 128.718C116.517 136.059 114.437 141.25 118.273 148.841C122.496 157.197 127.77 164.897 132.798 172.851C133.869 174.545 134.881 176.062 136.169 177.623ZM563.251 155.027C562.722 155.848 561.897 156.945 562.352 157.815C565.062 162.95 568.957 164.506 570.119 170.642C569.585 172.774 568.927 173.76 567.831 175.663C575.468 175.284 575.614 175.255 581.811 171.028C585.453 167.976 587.19 166.251 589.766 162.223C582.297 161.642 579.446 160.657 573.636 156.043C570.377 155.503 566.554 155.009 563.251 155.027ZM480.376 59.2169C486.338 59.4179 496.309 61.0712 501.51 63.7453C506.841 66.0481 510.027 68.0798 514.469 71.578C512.964 68.5031 502.35 46.2993 501.101 45.6604C493.966 49.8798 487.05 54.4035 480.376 59.2169ZM561.884 154.824C560.077 154.8 557.05 154.679 555.352 154.883C549.998 155.252 545.491 155.453 540.567 157.713C532.474 161.433 526.617 166.05 524.622 174.309C530.131 176.646 533.455 176.91 539.355 177.523C549.327 177.617 557.274 177.755 567.057 175.682C557.102 171.247 556.353 162.838 561.884 154.824ZM599.231 47.6988C592.63 44.3838 578.083 41.4745 570.69 42.2796C567.908 42.5484 563.015 43.1333 560.348 43.7848C566.61 51.0598 575.163 52.0687 584.43 54.2234C585.406 54.4504 586.627 54.6443 587.616 54.7468C588.02 54.789 588.429 54.8122 588.837 54.8165C590.635 54.4007 595.529 49.5204 599.231 47.6988ZM620.242 75.4269C624.762 77.1217 628.559 78.5606 632.468 81.3336C633.779 82.354 634.562 82.9676 635.71 84.1322C638.811 79.6535 639.572 75.7501 638.243 70.5111C636.888 65.1826 632.988 57.2049 629.759 52.6595C629.698 61.8933 625.91 68.174 620.242 75.4269ZM569.018 179.131L573.8 176.466C558.77 177.698 539.148 181.531 524.601 175.669C525.882 179.474 527.804 182.026 531.795 183.829C543.625 189.173 558.233 184.324 569.018 179.131ZM562.516 153.792C564.244 151.745 565.547 150.338 567.465 148.437C565.578 146.213 563.651 144.524 561.38 142.631C558.044 148.293 555.386 150.657 549.43 154.234C551.774 153.901 553.146 153.864 555.481 153.812C557.691 153.732 560.353 153.551 562.516 153.792ZM495.342 151.433L498.88 152.277C503.525 153.295 511.631 155.073 516.284 155.123C517.69 150.257 519.754 145.585 521.995 140.994C522.407 140.141 522.88 139.305 523.104 138.39L522.88 138.26C513.51 141.074 502.514 144.927 495.342 151.433ZM507.791 41.8761C505.873 42.8834 504.295 43.7241 502.453 44.8773C505.589 50.6188 508.569 56.4309 511.39 62.3083C512.379 64.3294 513.385 66.3496 514.349 68.4128C515.673 71.2469 517.707 74.9631 520.206 77.2237C526.282 82.7276 530.027 94.8613 538.31 97.3301C543.676 98.9298 551.008 98.7067 556.199 97.5192C553.115 95.8072 550.63 94.4964 548.011 92.1746C545.801 90.1165 544.683 88.3461 543.113 85.851C536.241 85.3449 530.152 82.8821 530.608 75.3083C530.965 69.3331 537.093 64.6214 540.425 59.8829C543.122 56.1096 544.919 51.8607 545.715 47.4103C536.413 50.6424 527.714 54.223 517.617 50.257C512.358 48.1906 511.124 45.7309 507.791 41.8761ZM524.97 137.818C522.167 142.909 519.414 150.012 517.475 155.436C519.969 155.575 522.463 155.701 524.957 155.814C527.516 155.842 530.002 155.876 532.56 155.803C534.771 149.808 536.525 140.032 528.157 137.112C527.189 137.315 525.886 137.548 524.97 137.818ZM161.619 41.3141C169.103 43.01 173.122 28.3488 171.041 23.6947C170.615 22.7401 169.029 22.6105 168.118 22.7023C166.681 22.8694 165.342 22.9872 163.959 23.5378C157.584 26.0767 153.814 35.4792 159.644 40.1113C160.109 40.4806 161.052 40.9843 161.619 41.3141ZM529.937 32.7416C522.412 33.7399 515.308 37.0789 509.064 40.9314C512.801 47.5238 518.142 50.3027 526.136 50.886C533.369 50.9932 539.269 48.4011 545.835 45.9702C545.156 36.3446 541.737 30.7903 529.937 32.7416ZM581.063 155.854C584.073 156.117 588.502 156.615 591.413 156.618C591.263 149.27 591.151 143.076 581.213 143.262C580.972 143.266 580.732 143.273 580.491 143.281C575.687 144.172 572.772 145.392 569.383 148.723C570.858 150.901 572.329 152.94 574.397 154.713C576.762 155.198 578.663 155.52 581.063 155.854ZM560.159 142.124C554.109 138.043 542.812 135.45 535.454 136.261L529.868 136.609C537.106 141.277 537.183 148.884 533.88 155.844C539.144 155.371 545.289 155.387 549.589 152.62C554.973 149.271 556.908 147.416 560.159 142.124ZM635.917 105.674L638.075 108.994C641.094 102.932 642.074 98.4123 639.567 91.7517C639.064 90.422 636.798 86.8134 635.706 86.0851C632.369 89.0733 630.515 90.1358 626.219 92.0784C629.376 96.6463 632.842 101.177 635.917 105.674ZM168.846 90.0799C168.385 92.7505 167.452 95.7966 166.036 98.1767C166.772 99.9022 167.915 103.755 169.368 104.418L170.464 103.519C178.167 97.4827 184.265 95.1329 191.284 88.4195C188.495 87.9273 186.687 87.8201 183.86 87.6478C181.907 90.305 180.526 92.9006 176.396 91.8334C173.909 91.1906 171.366 90.6045 168.846 90.0799ZM149.925 28.7993C151.147 28.1506 155.299 25.6219 155.945 25.4517L156.306 25.763C155.793 27.3064 153.695 28.1995 152.109 28.981C151.536 29.2612 150.958 29.5312 150.374 29.7909C151.679 32.1694 151.984 32.7563 154.821 33.7553L155.307 33.5587C155.677 30.5177 157.721 25.7406 160.527 23.9264C162.912 22.3843 166.743 21.1566 169.704 21.6165C171.395 21.8802 171.917 22.5971 173.308 22.934C173.819 21.812 174.342 21.0147 174.185 19.8375C172.912 17.5831 169.168 17.7262 166.724 17.4747C164.699 17.2666 162.68 16.9032 160.68 16.7007L159.578 17.1775L159.038 19.0342L158.634 19.1718C158.001 18.6614 156.996 17.6044 156.17 17.7167C150.466 18.4919 149.774 24.9397 149.925 28.7993ZM140.804 48.4079C148.076 49.4905 149.866 51.8891 152.828 57.8903C155.266 62.8302 157.662 67.9364 160.228 72.8132L160.926 73.7465L161.245 73.5321C161.495 71.5584 160.939 69.5582 160.775 67.6042C160.209 60.8561 158.09 55.3183 159.453 48.5561C153.145 58.0531 152.679 47.1447 149.382 44.3823C149.382 44.3823 148.242 44.4592 148.08 44.4698C144.98 45.7401 143.546 46.4097 140.804 48.4079ZM545.126 68.5555C554.001 59.1231 570.506 60.6373 582.417 62.6142C584.404 60.2317 586.533 57.9029 588.911 55.8385C585.664 55.697 583.11 55.2107 579.97 54.4622C571.877 52.5322 563.875 50.8545 559.024 44.0098C554.59 44.7078 551.21 45.7061 546.914 46.8514C546.652 51.1087 545.052 55.2607 542.502 59.2062C538.791 64.9446 527.576 73.7744 533.713 81.2946C535.527 83.5194 539.72 84.4329 542.705 84.6458C540.017 78.5499 541.23 73.8599 545.126 68.5555ZM517.221 169.684C514.899 165.317 515.08 161.154 515.884 156.451C510.448 155.647 499.337 154.019 494.249 152.302C480.627 167.651 496.166 176.14 512.078 171.518C514.164 170.941 515.235 170.523 517.221 169.684ZM534.061 97.2867C541.939 106.758 547.671 112.927 560.89 116.842C557.927 109.154 550.909 103.881 543.208 100.152C540.498 98.8395 536.998 98.3134 534.061 97.2867ZM458.857 72.2795C462.293 69.8033 465.769 67.3727 469.283 64.9887C471.692 63.4209 474.449 61.5406 476.95 60.1726C469.504 59.7966 462.306 59.7812 454.922 59.5042C455.47 64.4961 455.988 67.7846 458.857 72.2795ZM616.191 80.2123C619.197 83.5186 622.599 87.6927 625.583 90.8015C627.694 90.1209 628.254 89.8312 630.176 88.7426C632.236 87.3699 633.087 86.7649 634.94 85.0943C631.526 82.0537 623.97 77.0523 619.378 76.5695L616.191 80.2123ZM590.919 55.6769C588.094 58.3392 586.373 60.0839 583.828 62.9003L586.773 63.7122C589.556 64.4039 592.149 65.3119 594.854 66.2196C596.35 63.7177 602.435 51.8291 602.022 49.8924L601.798 49.7533C597.838 53.3331 596.397 54.6723 590.919 55.6769ZM140.446 49.8563C137.247 52.5891 138.319 57.4734 139.997 60.6232C143.088 66.425 147.866 76.8746 152.774 81.403C157.965 86.1932 172.41 89.823 179.506 91.0349C180.422 89.9578 181.709 88.7455 181.795 87.4602C181.322 86.8769 181.249 86.9901 180.41 86.6428C173.382 84.2336 167.442 80.6637 161.367 76.7343C160.664 76.2795 160.204 76.5049 159.523 76.7327L158.986 77.3034L159.201 77.5608C160.457 77.5107 161.118 77.2782 162.054 77.7764L161.985 78.2375C160.68 78.7786 158.652 78.7719 157.283 78.4645C156.159 77.2285 158.81 75.5602 159.831 74.8031C157.711 70.8257 155.833 66.8092 153.779 62.82C150.924 57.2779 148.749 49.3226 140.446 49.8563ZM533.661 156.968C529.842 163.18 525.813 166.598 518.971 170.104C519.918 170.972 520.997 172.017 521.96 172.841L523.169 173.417L523.551 173.219C525.34 165.131 532.345 160.29 539.905 156.723C539.238 156.422 539.355 156.54 538.46 156.651L533.661 156.968ZM592.923 54.2455C595.46 53.2499 599.261 51.0618 600.624 48.8169L600.538 48.2911C597.662 49.9945 595.352 51.528 592.94 53.8033L592.923 54.2455ZM532.16 156.823C528.226 157.183 521.354 156.817 517.264 156.477C516.151 161.427 516.404 164.39 518.266 169.022C520.954 167.858 524.054 165.887 526.097 163.908C529.03 161.269 530.092 160.169 532.16 156.823ZM195.906 184.349C197.623 187.3 198.382 187.268 201.736 187.631L201.999 187.658C205.523 185.055 205.63 185.121 207.41 181.269C205.402 180.143 201.781 178.912 199.443 179.438C198.241 179.494 197.655 179.328 196.797 179.875C197.584 180.847 200.653 181.715 202.004 182.168C203.359 181.857 204.484 181.492 205.856 181.713L205.974 182.045C201.774 185.281 199.936 181.55 196.475 181.726C195.635 182.469 195.826 183.289 195.906 184.349ZM567.156 173.967C571.378 167.389 564.107 163.799 561.075 158.5C560.013 160.809 559.966 161.332 559.832 163.81C559.656 166.97 562.761 174.338 567.156 173.967ZM595.499 161.031L591.344 161.978C588.803 166.107 587.079 168.465 583.011 171.664C582.155 172.335 579.807 173.914 579.282 174.415L579.532 174.607C585.083 173.48 589.938 172.549 593.202 167.82C594.166 166.426 595.946 162.866 595.847 161.248L595.499 161.031ZM203.875 187.708C207.688 188.516 212.216 188.757 216.134 189.015C217.454 188.854 218.369 188.881 219.365 188.113C220.41 185.2 211.11 182.458 208.601 181.581C207.508 184.829 206.833 185.631 203.875 187.708ZM137.48 58.7893C136.849 69.2985 136.308 79.436 132.8 89.4982C130.679 95.5826 129.868 96.2873 137.98 97.2718C144.85 98.1058 151.805 97.699 158.816 97.6596C160.248 97.5962 163.928 97.6622 165.075 96.9855C166.091 95.5368 166.872 93.3653 168.007 89.7749C148.943 82.7828 149.412 80.2562 142.484 68.2982C141.335 66.3127 138.595 60.4001 137.48 58.7893ZM616.901 77.4247L618.135 75.8226C615.318 75.1727 609.874 73.3988 607.797 73.0705C610.442 75.0841 612.459 76.7618 614.94 78.9476C615.796 78.8018 616.29 78.1133 616.901 77.4247ZM532.263 95.674C529.447 91.9066 520.365 78.2339 517.75 76.3181C519.892 82.4162 525.026 93.7452 532.263 95.674ZM590.441 160.609C590.652 159.699 591.022 158.702 590.712 157.874C586.064 157.424 580.443 157.015 575.928 156.184C578.745 158.456 586.778 162.505 590.441 160.609ZM600.311 71.6079C601.429 71.656 602.018 71.8736 602.818 71.4113C601.833 70.1462 597.107 68.4365 595.327 67.7413C594.247 69.484 593.714 70.1797 592.338 71.7431C594.733 71.697 597.988 71.5433 600.311 71.6079ZM228.766 66.207C232.139 65.8862 237.108 64.8331 237.727 61.0756C237.202 60.4233 235.096 57.7552 229.845 60.1533C227.158 60.8923 224.5 63.7749 223.612 66.207C224.421 66.3938 227.972 66.3532 228.766 66.207ZM572.337 154.575C571.4 153.542 569.121 150.274 568.39 149.648C567.027 150.914 565.289 152.437 564.094 153.798L568.54 154.206L572.337 154.575ZM156.715 50.4502C157.093 49.8003 157.893 48.7929 157.611 48.0713C156.845 46.1133 153.945 44.6413 151.872 44.0332C151.897 46.2611 153.429 50.0935 155.828 50.9491C156.296 50.7308 156.322 50.758 156.715 50.4502ZM126.731 187.813C133.27 189.199 135.847 189.103 141.682 189.03C143.254 188.929 144.576 189.013 145.689 187.813C147.743 185.598 146.758 180.603 144.387 178.92L143.926 179.016C144.22 180.443 145.479 185.916 145.3 187.191L144.894 187.178C142.263 184.165 143.824 180.712 142.784 179.201C139.873 182.598 131.119 186.136 126.731 187.813ZM160.421 50.5487C159.281 55.4011 162.876 67.508 162.589 72.9752C162.549 73.7339 162.793 75.5618 163.065 76.3035C164.52 77.61 166.345 78.442 168.007 79.5231C168.032 78.8657 167.667 76.5849 167.414 75.9768C165.936 72.4369 162.924 51.9955 160.421 50.5487ZM613.491 50.2538C617.812 48.986 619.791 47.8852 622.418 44.3397C618.496 42.7415 617.537 42.5319 613.13 42.7861C610.782 43.1175 608.674 43.7268 606.456 44.5005C600.216 51.2143 608.017 51.5004 613.491 50.2538ZM572.393 75.6268C575.361 74.8555 578.435 74.0156 581.411 73.3224C584.593 72.7406 587.362 72.2086 590.588 71.9134C591.714 70.4492 592.957 68.7419 594.153 67.3511C589.981 65.8211 587.251 65.146 583.045 63.9404C579.553 68.163 576.229 71.7151 572.393 75.6268ZM595.331 11.5964C604.68 17.0786 611.384 33.6658 606.529 43.0907C611.895 41.6991 615.215 40.8309 620.784 42.3159L622.676 42.9398C623.162 42.66 623.308 42.4491 623.36 41.8587C624.719 26.4077 610.433 14.0565 595.331 11.5964ZM588.085 121.367C578.173 120.556 573.043 120.991 562.881 118.772C564.55 127.685 564.851 132.842 561.789 141.523C564.859 143.719 565.917 144.677 568.312 147.647C575.158 142.405 581.398 140.098 589.779 144.215C590.115 140.767 590.102 139.925 591.68 136.718C595.129 131.847 599.063 129.788 604.791 127.571C602.237 126.004 593.022 121.205 590.214 121.774C590.751 122.319 591.491 122.936 591.701 123.614L591.306 123.918C590.308 123.624 588.898 122.122 588.085 121.367ZM604.103 155.2C608.416 150.772 610.635 144.954 610.27 139.026C610.119 136.667 608.202 129.06 605.191 128.757C595.585 132.567 587.87 138.557 592.733 149.319C593.82 151.724 592.733 159.747 592.32 160.247C597.395 159.247 601.32 157.247 604.103 155.2ZM588.997 73.3074C583.488 73.817 573.929 76.1301 568.807 78.2071C560.882 81.4219 553.425 84.9863 544.468 85.6275C546.476 88.6607 547.383 90.2154 550.329 92.6073C553.145 94.3694 555.141 95.5593 558.155 97.0238C571.753 93.6884 580.99 84.2272 589.164 74.0172C589.328 73.8126 589.444 73.51 589.543 73.2735L588.997 73.3074ZM563.978 62.3324C550.737 63.7051 538.31 70.7153 544.016 84.4625C549.727 83.9293 551.735 83.251 557.321 81.5811C571.125 76.4442 572.548 74.2072 581.553 63.6893C577.39 62.9673 568.205 61.526 563.978 62.3324ZM623.751 45.1236C618.612 51.0586 611.551 53.4438 603.57 50.875C601.059 56.7793 599.296 61.1626 596.182 66.7705C599.051 67.9316 602.456 69.4387 605.105 70.9919C607.634 72.0517 615.555 73.9983 618.978 75.1085C624.641 66.9723 634.282 53.2775 623.751 45.1236ZM173.265 60.5321C172.433 66.5467 172.187 76.2476 171.184 81.2812C182 87.1304 182.569 85.8948 193.545 87.288C198.699 83.9376 203.665 80.4114 208.771 77.0268C213.077 74.0051 217.406 71.0101 221.757 68.0428C202.681 72.3911 189.917 69.4144 173.265 60.5321ZM592.759 72.9728C592.656 73.0004 591.611 73.2755 591.611 73.2755C588.777 76.2846 586.33 79.525 583.475 82.538C581.037 85.1364 578.392 87.5599 575.55 89.787C570.394 93.7794 566.102 95.9566 559.708 97.8602C566.554 100.922 573.658 101.414 581.114 100.602C595.374 98.4324 604.654 89.545 614.243 80.3314C611.379 77.528 608.859 75.293 605.548 72.89C601.214 72.7958 597.103 72.6807 592.759 72.9728ZM584.679 42.2142C589.809 43.2559 595.83 44.3385 600.358 46.8691C601.687 46.1893 603.622 45.174 604.396 43.9747C610.764 34.0903 603.089 14.9003 591.319 11.0438C590.153 10.6607 585.156 10.8207 583.716 10.8842C575.029 12.2179 568.923 14.717 563.539 21.5518C559.656 26.4818 557.669 33.2622 558.908 39.3044C559.144 40.4375 559.471 41.5525 559.888 42.6407C570.106 40.8037 574.406 40.6567 584.679 42.2142ZM637.847 111.532C631.47 118.303 625.226 121.443 616.174 124.847C613.431 125.878 609.827 126.938 607.212 128.029C613.757 137.107 612.828 145.342 606.658 154.313C609.509 154.693 617.8 151.027 620.56 149.588C630.257 144.532 639.142 136.015 640.72 125.544C641.408 120.803 640.509 115.982 638.135 111.722L637.847 111.532ZM615.108 81.3442C604.009 91.9176 593.056 102.025 576.018 102.096C568.85 102.126 564.128 101.085 557.553 98.3532C552.165 99.8122 549.615 99.8075 544.313 99.4075C551.95 102.988 556.328 106.79 560.74 113.448C561.669 115.074 561.931 115.72 562.546 117.479C567.022 118.466 570.011 119.094 574.569 119.468C578.637 119.803 583.544 119.754 587.474 120.233C581.678 112.67 585.531 105.349 593.92 101.657C603.6 97.3971 614.377 95.3965 624.362 91.6C622.642 89.5699 617.103 82.5156 615.108 81.3442ZM148.338 115.387C146.555 118.341 144.203 121.048 142.164 123.872C137.996 129.646 134.038 134.946 130.723 141.169C132.578 144.079 134.68 149.332 136.119 152.634L143.53 169.757L144.242 172.525C147.866 165.981 152.031 160.998 155.687 154.703C159.333 148.427 156.896 139.903 156.004 132.922C155.575 129.416 155.432 125.886 155.576 122.36C154.496 120.568 150.238 116.277 148.338 115.387ZM458.419 74.2497C453.144 78.799 443.336 86.8978 450.392 94.1066C454.481 98.2842 463.33 99.4485 469.196 99.4894C476.599 99.3799 486.504 99.091 493.79 97.6418C494.299 97.5401 497.071 95.7835 497.673 95.404C502.18 92.5321 506.299 91.49 511.82 91.371C510.681 89.5025 509.713 88.0632 507.615 87.0373C493.024 79.9069 472.856 88.5188 460.366 76.1908C459.687 75.5208 459.209 74.8385 458.419 74.2497ZM168.15 107.09C164.026 111.135 158.59 116.323 157.277 121.957C168.742 135.996 176.929 150.224 185.928 165.61C188.202 169.499 190.824 173.53 193.624 177.103C194.987 178.78 195.718 178.51 197.81 178.416C201.909 177.861 203.051 178.122 206.994 179.305C204.438 173.262 199.024 165.442 195.508 159.526C188.899 148.53 182.748 137.306 177.071 125.881C175.868 123.437 168.73 107.533 168.15 107.09ZM494.055 99.5017C486.305 106.42 488.875 113.993 495.788 120.412C504.007 128.044 514.383 131.091 525.25 134.225C531.253 121.91 534.388 110.205 517.935 103.984C510.027 100.993 502.682 99.3204 494.055 99.5017ZM478.926 60.4044C473.377 63.8403 464.283 69.367 459.639 73.4796C464.621 79.2834 469.766 81.0589 477.55 82.0942C486.326 83.2616 508.315 80.7613 512.435 90.0562L512.633 90.9855C514.848 91.9251 522.124 92.1127 526.66 93.9674C519.518 85.9692 519.552 82.4517 515.385 74.6848C511.425 67.3046 492.295 60.9084 483.814 60.5577C482.128 60.4166 480.524 60.3898 478.926 60.4044ZM624.938 92.6787C616.196 96.1434 606.709 98.1321 597.735 101.36C589.491 104.325 581.058 112.296 588.936 119.967C593.727 121.034 597.782 122.33 602.082 124.627C603.867 125.51 604.37 125.873 605.944 127.08C616.583 123.713 630.395 118.995 637.103 110.151C636.321 108.568 625.57 92.9542 624.938 92.6787ZM511.141 92.4879C504.613 93.1288 500.781 94.2177 495.67 98.3422C509.21 98.7863 532.921 103.5 531.378 119.595C530.849 125.095 529.137 129.556 526.63 134.518L528.488 135.555C535.532 135.098 540.782 134.789 547.732 136.027C552.543 137.241 556.147 138.23 560.452 140.687C563.844 133.972 562.989 125.709 561.531 118.649C553.941 115.048 551.357 115.076 544.231 109.829C542.133 108.274 540.21 106.529 538.495 104.619C536.938 102.869 533.102 97.7431 531.343 96.876C526.635 94.5515 516.391 92.0193 511.141 92.4879ZM489.862 101.86C481.747 107.422 457.858 122.983 462.034 133.7C465.425 142.403 484.615 148.424 493.791 150.928L496.369 148.932C500.862 145.707 505.787 143.023 511.025 140.945C512.865 140.223 523.405 136.868 524.209 136.256C524.162 135.841 524.256 135.798 523.986 135.645C520.141 133.479 514.241 132.229 510.139 130.612C501.224 127.093 489.535 119.462 487.992 110.079C487.585 107.607 488.893 104.302 489.913 102.111L489.862 101.86Z" fill="#FAF8FA"/>
</svg>
