<svg width="63" height="37" viewBox="0 0 63 37" fill="none" xmlns="http://www.w3.org/2000/svg">
<path d="M58.5423 26.2673C57.2001 22.655 57.7576 18.5398 58.2927 14.7837C58.2927 14.7837 58.3354 14.5641 58.2147 14.5318C58.094 14.4995 58.0341 14.7144 58.0341 14.7144C56.9954 17.5132 56.2324 20.4297 56.1421 23.448C43.4039 6.83471 15.3947 8.20982 0.190853 20.5679C0.190853 20.5679 -0.0439101 20.7198 0.0717372 20.8918C0.187384 21.0637 0.480652 20.9089 0.480652 20.9089C8.9518 15.5553 21.911 13.1438 29.475 14.0294C40.3061 15.3006 46.5361 18.527 54.3888 23.9392C51.8659 22.1982 47.7123 22.9311 45.3704 25.1704C45.3704 25.1704 45.2402 25.2857 45.2779 25.3605C45.3157 25.4353 45.4935 25.4182 45.4935 25.4182C47.9844 25.1917 50.4062 25.7667 52.7967 26.3633C54.695 26.7312 56.5475 27.3051 58.3214 28.0746C58.4187 28.1155 58.526 28.1264 58.6296 28.106C58.7332 28.0856 58.8283 28.0348 58.9029 27.9601C58.9774 27.8854 59.028 27.7901 59.0482 27.6865C59.0684 27.5829 59.0572 27.4756 59.0162 27.3783L58.5423 26.2673Z" fill="#150D00"/>
<path d="M14.1298 9.76357C14.7891 9.1668 15.6495 8.8412 16.5386 8.852C16.5787 8.85334 16.6173 8.86765 16.6485 8.89278C16.6797 8.91791 16.702 8.95251 16.7119 8.99136C16.7218 9.03021 16.7188 9.07122 16.7034 9.10824C16.688 9.14526 16.661 9.17628 16.6265 9.19664C15.9006 9.60188 15.1203 9.90082 14.3095 10.0843C14.2677 10.1015 14.221 10.1027 14.1783 10.0878C14.1356 10.0729 14.0998 10.0429 14.0777 10.0035C14.0556 9.96403 14.0487 9.91786 14.0583 9.87366C14.0679 9.82947 14.0933 9.79031 14.1298 9.76357Z" fill="#150D00"/>
<path d="M18.2322 8.52754C24.017 6.25894 30.8771 6.00411 36.5819 8.56071C36.6134 8.571 36.6396 8.59341 36.6546 8.623C36.6697 8.65259 36.6723 8.68693 36.6621 8.71849C36.6518 8.75004 36.6294 8.77621 36.5998 8.79125C36.5702 8.80628 36.5358 8.80894 36.5043 8.79865C30.5047 7.45441 24.3374 7.71007 18.2984 8.77168C18.2661 8.78046 18.2315 8.77603 18.2024 8.75935C18.1733 8.74267 18.152 8.71511 18.1432 8.68274C18.1344 8.65036 18.1389 8.61582 18.1556 8.58671C18.1722 8.55761 18.1998 8.53632 18.2322 8.52754Z" fill="#150D00"/>
</svg>
