<svg width="56" height="56" viewBox="0 0 56 56" fill="none" xmlns="http://www.w3.org/2000/svg">
<g clip-path="url(#clip0_251_120)">
<path d="M30.0725 33.7066C37.5781 34.5314 44.3311 29.1154 45.1558 21.6098C45.9805 14.1042 40.5646 7.35119 33.059 6.52648C25.5534 5.70176 18.8004 11.1177 17.9757 18.6233C17.1509 26.1289 22.5669 32.8819 30.0725 33.7066Z" fill="white" stroke="black" stroke-miterlimit="10" stroke-linecap="round" stroke-linejoin="round"/>
<path d="M34.1951 30.4437C34.0536 29.8843 33.6434 29.4305 33.1004 29.2315L32.5784 29.0407C31.9574 28.8134 31.543 28.2242 31.5416 27.5663L31.534 24.098C31.5334 23.7599 31.9001 23.585 32.1602 23.739C32.2014 23.7634 32.2403 23.7962 32.2744 23.8379C32.9197 24.6288 33.7916 25.2031 34.7731 25.4836L34.8451 25.5041C35.6521 25.7344 36.4948 25.2931 36.7593 24.5022L36.7883 24.4154C37.1146 23.4371 38.2476 23.0821 39.0695 23.5686C39.2108 23.6522 39.3432 23.7614 39.4605 23.896C40.0948 24.6237 40.9447 25.1302 41.8866 25.3418L43.37 25.7948C43.0398 26.4046 42.6931 26.7692 42.1578 27.6736C40.3393 30.4919 38.187 31.7645 34.7621 32.6866L34.1951 30.4437Z" fill="#ACACAC"/>
<path d="M23.2036 14.4802C23.6934 15.087 23.8512 15.8986 23.6257 16.647L23.4084 17.366C23.1503 18.2218 23.451 19.1476 24.161 19.6829L27.9038 22.5052C28.2688 22.7801 28.7553 22.5256 28.8 22.1196C28.807 22.0552 28.8031 21.9866 28.7857 21.9158C28.4543 20.5767 28.541 19.1682 29.034 17.8798L29.0703 17.7852C29.4761 16.7261 30.6368 16.1732 31.7064 16.5291L31.8237 16.5681C33.1459 17.0091 34.4489 16.0724 34.5899 14.7893C34.6141 14.5687 34.6036 14.3371 34.5532 14.1011C34.2812 12.825 34.4232 11.4954 34.9588 10.3055L35.9449 8.11808C34.7503 7.50564 33.4267 7.09713 32.0147 6.94199C27.6139 6.45843 23.5218 8.56407 21.2392 12.0476L23.2036 14.4802Z" fill="#00E18E"/>
<path d="M45.0074 36.8765C35.7511 44.3001 22.2293 42.8143 14.8057 33.558C7.38217 24.3016 8.86794 10.7798 18.1243 3.35624" stroke="black" stroke-miterlimit="10" stroke-linecap="round" stroke-linejoin="round"/>
<path d="M18.4831 49.7668L34.0146 51.4734M26.5902 47.5138L26.2488 50.6201" stroke="black" stroke-miterlimit="10" stroke-linecap="round" stroke-linejoin="round"/>
<path d="M26.1213 16.0244C28.2657 16.26 29.8131 18.1895 29.5775 20.3339C29.3419 22.4784 30.8893 24.4078 33.0337 24.6435C35.1781 24.8791 37.1076 23.3317 37.3433 21.1872" stroke="black" stroke-miterlimit="10" stroke-linecap="round" stroke-linejoin="round"/>
</g>
<defs>
<clipPath id="clip0_251_120">
<rect width="50" height="50" fill="white" transform="translate(5.46111) rotate(6.27049)"/>
</clipPath>
</defs>
</svg>
