<svg width="62" height="62" viewBox="0 0 62 62" fill="none" xmlns="http://www.w3.org/2000/svg">
<path d="M53.4226 12.3818L52.336 17.9683C52.3269 18.0152 52.287 18.0499 52.2394 18.0525L45.4154 18.4205M16.0268 43.6688L9.63138 43.9136C9.58423 43.9154 9.54418 43.9487 9.53377 43.9947L8.1439 50.1362M5.9404 31.0469C5.9262 22.5728 10.2228 14.3008 18.0016 9.59579C29.5305 2.62266 44.4466 6.06241 51.7958 17.2172C51.8479 17.2962 51.8995 17.3756 51.9508 17.4554C52.0068 17.5424 52.0623 17.6299 52.1173 17.7179M55.9315 30.9178C55.9457 39.3919 51.6491 47.664 43.8703 52.369C32.187 59.4355 17.0252 55.8083 9.78492 44.2952" stroke="black" stroke-linecap="round"/>
<path d="M26.0871 15.0571C34.7549 12.5446 43.8737 17.5659 46.3865 26.234C48.899 34.9021 43.8787 44.0191 35.2112 46.5318C26.5436 49.0445 17.4248 44.0262 14.9118 35.3581C12.399 26.6899 17.4193 17.5698 26.0871 15.0571Z" fill="#837683"/>
<path d="M26.0871 15.0571C34.7549 12.5446 43.8737 17.5659 46.3865 26.234C48.899 34.9021 43.8787 44.0191 35.2112 46.5318C26.5436 49.0445 17.4248 44.0262 14.9118 35.3581C12.399 26.6899 17.4193 17.5698 26.0871 15.0571Z" fill="#DDDDDD"/>
<path d="M26.0871 15.0571C34.7549 12.5446 43.8737 17.5659 46.3865 26.234C48.899 34.9021 43.8787 44.0191 35.2112 46.5318C26.5436 49.0445 17.4248 44.0262 14.9118 35.3581C12.399 26.6899 17.4193 17.5698 26.0871 15.0571Z" stroke="black"/>
<path fill-rule="evenodd" clip-rule="evenodd" d="M31.1587 33.2598C25.5641 34.8816 21.7431 39.0791 22.2314 44.1881C22.2727 44.6209 22.525 45.0045 22.8991 45.2261C26.4527 47.3311 30.9292 47.9677 35.074 46.7662C35.8609 46.5381 36.6215 46.2621 37.3506 45.9416C40.3984 44.604 42.7646 42.0172 44.5044 39.4181C44.7877 38.9948 44.8365 38.4522 44.601 38.0007C42.2396 33.4734 36.7069 31.6514 31.1587 33.2598Z" fill="white" stroke="black" stroke-miterlimit="10" stroke-linecap="round" stroke-linejoin="round"/>
<path fill-rule="evenodd" clip-rule="evenodd" d="M30.7204 31.0448C33.8898 30.126 35.8225 27.1293 35.024 24.3745C34.2249 21.618 30.9895 20.1213 27.8201 21.04C24.6527 21.9582 22.7194 24.9533 23.5185 27.7098C24.3171 30.4646 27.5529 31.963 30.7204 31.0448Z" fill="#00E18E" stroke="black" stroke-miterlimit="10" stroke-linecap="round" stroke-linejoin="round"/>
</svg>
