<svg width="50" height="50" viewBox="0 0 50 50" fill="none" xmlns="http://www.w3.org/2000/svg">
<path d="M7.42188 33.7891H16.0156" stroke="#00E18E" stroke-width="3" stroke-miterlimit="10" stroke-linecap="round" stroke-linejoin="round"/>
<path d="M31.4453 42.5781C41.1534 42.5781 49.0234 34.7081 49.0234 25C49.0234 15.2919 41.1534 7.42188 31.4453 7.42188C21.7372 7.42188 13.8672 15.2919 13.8672 25C13.8672 34.7081 21.7372 42.5781 31.4453 42.5781Z" fill="#FF9EB1"/>
<path d="M31.4453 7.92188C40.8773 7.92188 48.5234 15.568 48.5234 25C48.5234 34.432 40.8773 42.0781 31.4453 42.0781C22.0133 42.0781 14.3672 34.432 14.3672 25C14.3672 15.568 22.0133 7.92188 31.4453 7.92188Z" fill="#DDDDDD" stroke="black" stroke-linejoin="round"/>
<path d="M31.4453 37.6953C38.4567 37.6953 44.1406 32.0114 44.1406 25C44.1406 17.9886 38.4567 12.3047 31.4453 12.3047C24.4339 12.3047 18.75 17.9886 18.75 25C18.75 32.0114 24.4339 37.6953 31.4453 37.6953Z" fill="white"/>
<path d="M37.3047 30.8594L31.4453 25V17.1875M3.61328 22.0703H10.3516M5.56641 16.2109H23.0469M0.976562 27.9297H20.1172" stroke="black" stroke-miterlimit="10" stroke-linecap="round" stroke-linejoin="round"/>
</svg>
