<svg width="136" height="68" viewBox="0 0 136 68" fill="none" xmlns="http://www.w3.org/2000/svg">
<path d="M129.187 45.7644C125.456 38.1617 125.768 29.0407 126.11 20.7097C126.11 20.7097 126.155 20.2202 125.884 20.1761C125.613 20.132 125.53 20.6152 125.53 20.6152C123.875 26.9639 122.85 33.5093 123.318 40.1289C91.8027 6.61027 30.8614 15.7907 0.340732 46.1638C0.340732 46.1638 -0.139107 46.5478 0.151656 46.8982C0.442419 47.2485 1.04956 46.8456 1.04956 46.8456C18.3924 33.2723 46.1972 25.143 62.9317 25.4121C86.8951 25.8045 101.229 31.486 119.592 41.5894C113.692 38.3387 104.771 40.8567 100.144 46.2694C100.144 46.2694 99.8848 46.5501 99.9837 46.7054C100.083 46.8606 100.468 46.7841 100.468 46.7841C105.865 45.7397 111.287 46.4631 116.645 47.2408C120.877 47.627 125.054 48.4734 129.102 49.7651C129.324 49.833 129.561 49.8333 129.783 49.7658C130.005 49.6984 130.202 49.5663 130.349 49.3865C130.495 49.2066 130.585 48.9872 130.606 48.7562C130.628 48.5252 130.58 48.293 130.468 48.0895L129.187 45.7644Z" fill="#150D00"/>
<path d="M28.4347 19.4658C29.7447 18.0156 31.5543 17.114 33.501 16.9416C33.5889 16.9358 33.6763 16.9586 33.7502 17.0066C33.824 17.0547 33.8803 17.1254 33.9105 17.2082C33.9407 17.291 33.9433 17.3813 33.9178 17.4656C33.8922 17.55 33.84 17.6237 33.769 17.6759C32.2712 18.722 30.6309 19.5476 28.8984 20.1276C28.8107 20.1743 28.7089 20.1873 28.6123 20.1641C28.5156 20.141 28.4308 20.0833 28.3738 20.0019C28.3167 19.9205 28.2914 19.821 28.3027 19.7223C28.3139 19.6236 28.3609 19.5323 28.4347 19.4658Z" fill="#150D00"/>
<path d="M37.1342 15.8629C49.2833 9.62732 64.2272 7.55806 77.2647 11.8909C77.336 11.9064 77.3982 11.9496 77.4376 12.011C77.4769 12.0724 77.4903 12.1469 77.4748 12.2182C77.4592 12.2894 77.416 12.3516 77.3546 12.391C77.2932 12.4304 77.2187 12.4438 77.1475 12.4282C63.7326 10.8114 50.3037 12.7297 37.3329 16.3821C37.2641 16.4084 37.1876 16.4064 37.1203 16.3763C37.0529 16.3462 37.0003 16.2907 36.974 16.2218C36.9476 16.153 36.9497 16.0765 36.9798 16.0091C37.0098 15.9418 37.0654 15.8892 37.1342 15.8629Z" fill="#150D00"/>
</svg>
