<svg width="40" height="40" viewBox="0 0 40 40" fill="none" xmlns="http://www.w3.org/2000/svg">
<g clip-path="url(#clip0_3618_3295)">
<path d="M39.5229 7.61877L39.4276 6.80925H34.6657C34.9038 5.1902 35.0467 3.52353 35.1419 1.80924C35.1895 0.904483 34.4752 0.142578 33.6657 0.142578H6.38C5.52286 0.142578 4.85619 0.904483 4.90381 1.80924C4.95143 3.52353 5.14191 5.1902 5.38 6.80925H0.618099L0.475242 7.61877C0.427623 7.80925 -0.0961871 12.6664 3.04667 17.0473C5.09429 19.9045 8.28477 21.8569 12.4276 22.8569C13.761 24.1902 15.2371 25.1902 16.8086 25.8092C16.6181 27.7616 16.38 29.6664 16.1419 31.4283H23.9038C23.6181 29.6188 23.38 27.7616 23.1895 25.8092C24.761 25.2378 26.2371 24.2378 27.5705 22.8569C31.7133 21.8569 34.9038 19.9045 36.9514 17.0473C40.0943 12.6664 39.5229 7.80925 39.5229 7.61877ZM4.42762 15.8569C2.42762 13.095 2.18953 10.095 2.18953 8.66639H5.66572C6.57048 13.1902 8.18953 17.1902 10.2371 20.1902C7.76096 19.2378 5.80858 17.7616 4.42762 15.8569ZM35.5705 15.8569C34.1895 17.7616 32.2371 19.2378 29.761 20.1902C31.8562 17.1426 33.4276 13.1902 34.3324 8.66639H37.8086C37.8086 10.095 37.5229 13.095 35.5705 15.8569Z" fill="#FFC107"/>
<path d="M28.0945 38.1416H11.904C11.4278 38.1416 11.0469 37.7606 11.0469 37.2844V31.1892C11.0469 30.713 11.4278 30.332 11.904 30.332H28.0945C28.5707 30.332 28.9516 30.713 28.9516 31.1892V37.2844C28.9516 37.7606 28.5707 38.1416 28.0945 38.1416Z" fill="#C19D72"/>
<path d="M9.47433 39.9515H30.5219C30.9981 39.9515 31.3791 39.5706 31.3791 39.0944V37.2849C31.3791 36.8087 30.9981 36.4277 30.5219 36.4277H9.47433C8.99814 36.4277 8.61719 36.8087 8.61719 37.2849V39.0944C8.61719 39.523 8.99814 39.9515 9.47433 39.9515Z" fill="#A88763"/>
<path d="M23.8077 34.7611H16.1886C15.8553 34.7611 15.6172 34.523 15.6172 34.1896V32.9992C15.6172 32.6658 15.8553 32.4277 16.1886 32.4277H23.8077C24.141 32.4277 24.3791 32.6658 24.3791 32.9992V34.1896C24.3791 34.523 24.0934 34.7611 23.8077 34.7611Z" fill="#FFC107"/>
</g>
<defs>
<clipPath id="clip0_3618_3295">
<rect width="40" height="40" fill="white"/>
</clipPath>
</defs>
</svg>
